<?xml version="1.0" encoding="UTF-8" standalone="no"?>
<!DOCTYPE svg PUBLIC "-//W3C//DTD SVG 1.1//EN"
 "http://www.w3.org/Graphics/SVG/1.1/DTD/svg11.dtd">
<!-- Generated by graphviz version 2.47.0 (20210316.0004)
 -->
<!-- Title: dependencies Pages: 1 -->
<svg width="732pt" height="211pt"
 viewBox="0.00 0.00 732.00 211.00" xmlns="http://www.w3.org/2000/svg" xmlns:xlink="http://www.w3.org/1999/xlink">
<g id="graph0" class="graph" transform="scale(1 1) rotate(0) translate(4 207)">
<title>dependencies</title>
<polygon fill="white" stroke="transparent" points="-4,4 -4,-207 728,-207 728,4 -4,4"/>
<text text-anchor="start" x="341.01" y="-42.4" font-family="Times-12" font-weight="bold" font-size="14.00">Legend</text>
<polygon fill="#ffffb3" stroke="transparent" points="128,-10 128,-30 148,-30 148,-10 128,-10"/>
<text text-anchor="start" x="151.63" y="-15.4" font-family="Times-12" font-size="14.00"> &#160;Declarations</text>
<polygon fill="#8dd3c7" stroke="transparent" points="241,-10 241,-30 261,-30 261,-10 241,-10"/>
<text text-anchor="start" x="264.73" y="-15.4" font-family="Times-12" font-size="14.00"> &#160;Module</text>
<polygon fill="#80b1d3" stroke="transparent" points="327,-10 327,-30 347,-30 347,-10 327,-10"/>
<text text-anchor="start" x="350.78" y="-15.4" font-family="Times-12" font-size="14.00"> &#160;Bootstrap</text>
<polygon fill="#fdb462" stroke="transparent" points="424,-10 424,-30 444,-30 444,-10 424,-10"/>
<text text-anchor="start" x="447.67" y="-15.4" font-family="Times-12" font-size="14.00"> &#160;Providers</text>
<polygon fill="#fb8072" stroke="transparent" points="520,-10 520,-30 540,-30 540,-10 520,-10"/>
<text text-anchor="start" x="543.73" y="-15.4" font-family="Times-12" font-size="14.00"> &#160;Exports</text>
<g id="clust1" class="cluster">
<title>cluster_TablesModule</title>
<polygon fill="none" stroke="black" stroke-dasharray="1,5" points="8,-70 8,-195 716,-195 716,-70 8,-70"/>
</g>
<g id="clust2" class="cluster">
<title>cluster_TablesModule_declarations</title>
<polygon fill="none" stroke="black" points="146,-78 146,-130 708,-130 708,-78 146,-78"/>
</g>
<g id="clust6" class="cluster">
<title>cluster_TablesModule_imports</title>
<polygon fill="none" stroke="black" points="16,-78 16,-130 138,-130 138,-78 16,-78"/>
</g>
<!-- AppMixTableComponent -->
<g id="node1" class="node">
<title>AppMixTableComponent</title>
<polygon fill="#ffffb3" stroke="black" points="700.15,-122 539.85,-122 539.85,-86 700.15,-86 700.15,-122"/>
<text text-anchor="middle" x="620" y="-99.8" font-family="Times,serif" font-size="14.00">AppMixTableComponent</text>
</g>
<!-- TablesModule -->
<g id="node4" class="node">
<title>TablesModule</title>
<polygon fill="#8dd3c7" stroke="black" points="373.37,-187 370.37,-191 349.37,-191 346.37,-187 276.63,-187 276.63,-151 373.37,-151 373.37,-187"/>
<text text-anchor="middle" x="325" y="-164.8" font-family="Times,serif" font-size="14.00">TablesModule</text>
</g>
<!-- AppMixTableComponent&#45;&gt;TablesModule -->
<g id="edge1" class="edge">
<title>AppMixTableComponent&#45;&gt;TablesModule</title>
<path fill="none" stroke="black" d="M620,-122.11C620,-141.34 620,-169 620,-169 620,-169 383.38,-169 383.38,-169"/>
<polygon fill="black" stroke="black" points="383.38,-165.5 373.38,-169 383.38,-172.5 383.38,-165.5"/>
</g>
<!-- ExpandedDataModalComponent -->
<g id="node2" class="node">
<title>ExpandedDataModalComponent</title>
<polygon fill="#ffffb3" stroke="black" points="522.29,-122 321.71,-122 321.71,-86 522.29,-86 522.29,-122"/>
<text text-anchor="middle" x="422" y="-99.8" font-family="Times,serif" font-size="14.00">ExpandedDataModalComponent</text>
</g>
<!-- ExpandedDataModalComponent&#45;&gt;TablesModule -->
<g id="edge2" class="edge">
<title>ExpandedDataModalComponent&#45;&gt;TablesModule</title>
<path fill="none" stroke="black" d="M347.64,-122.11C347.64,-122.11 347.64,-140.99 347.64,-140.99"/>
<polygon fill="black" stroke="black" points="344.14,-140.99 347.64,-150.99 351.14,-140.99 344.14,-140.99"/>
</g>
<!-- FormDialogComponent -->
<g id="node3" class="node">
<title>FormDialogComponent</title>
<polygon fill="#ffffb3" stroke="black" points="303.77,-122 154.23,-122 154.23,-86 303.77,-86 303.77,-122"/>
<text text-anchor="middle" x="229" y="-99.8" font-family="Times,serif" font-size="14.00">FormDialogComponent</text>
</g>
<!-- FormDialogComponent&#45;&gt;TablesModule -->
<g id="edge3" class="edge">
<title>FormDialogComponent&#45;&gt;TablesModule</title>
<path fill="none" stroke="black" d="M290.23,-122.11C290.23,-122.11 290.23,-140.99 290.23,-140.99"/>
<polygon fill="black" stroke="black" points="286.73,-140.99 290.23,-150.99 293.73,-140.99 286.73,-140.99"/>
</g>
<!-- MaterialModule -->
<g id="node5" class="node">
<title>MaterialModule</title>
<polygon fill="#8dd3c7" stroke="black" points="130.47,-122 127.47,-126 106.47,-126 103.47,-122 23.53,-122 23.53,-86 130.47,-86 130.47,-122"/>
<text text-anchor="middle" x="77" y="-99.8" font-family="Times,serif" font-size="14.00">MaterialModule</text>
</g>
<!-- MaterialModule&#45;&gt;TablesModule -->
<g id="edge4" class="edge">
<title>MaterialModule&#45;&gt;TablesModule</title>
<path fill="none" stroke="black" d="M77,-122.11C77,-141.34 77,-169 77,-169 77,-169 266.59,-169 266.59,-169"/>
<polygon fill="black" stroke="black" points="266.59,-172.5 276.59,-169 266.59,-165.5 266.59,-172.5"/>
</g>
</g>
</svg>
