<?xml version="1.0" encoding="UTF-8" standalone="no"?>
<!DOCTYPE svg PUBLIC "-//W3C//DTD SVG 1.1//EN"
 "http://www.w3.org/Graphics/SVG/1.1/DTD/svg11.dtd">
<!-- Generated by graphviz version 2.47.0 (20210316.0004)
 -->
<!-- Title: dependencies Pages: 1 -->
<svg width="1490pt" height="211pt"
 viewBox="0.00 0.00 1490.00 211.00" xmlns="http://www.w3.org/2000/svg" xmlns:xlink="http://www.w3.org/1999/xlink">
<g id="graph0" class="graph" transform="scale(1 1) rotate(0) translate(4 207)">
<title>dependencies</title>
<polygon fill="white" stroke="transparent" points="-4,4 -4,-207 1486,-207 1486,4 -4,4"/>
<text text-anchor="start" x="720.01" y="-42.4" font-family="Times-12" font-weight="bold" font-size="14.00">Legend</text>
<polygon fill="#ffffb3" stroke="transparent" points="507,-10 507,-30 527,-30 527,-10 507,-10"/>
<text text-anchor="start" x="530.63" y="-15.4" font-family="Times-12" font-size="14.00"> &#160;Declarations</text>
<polygon fill="#8dd3c7" stroke="transparent" points="620,-10 620,-30 640,-30 640,-10 620,-10"/>
<text text-anchor="start" x="643.73" y="-15.4" font-family="Times-12" font-size="14.00"> &#160;Module</text>
<polygon fill="#80b1d3" stroke="transparent" points="706,-10 706,-30 726,-30 726,-10 706,-10"/>
<text text-anchor="start" x="729.78" y="-15.4" font-family="Times-12" font-size="14.00"> &#160;Bootstrap</text>
<polygon fill="#fdb462" stroke="transparent" points="803,-10 803,-30 823,-30 823,-10 803,-10"/>
<text text-anchor="start" x="826.67" y="-15.4" font-family="Times-12" font-size="14.00"> &#160;Providers</text>
<polygon fill="#fb8072" stroke="transparent" points="899,-10 899,-30 919,-30 919,-10 899,-10"/>
<text text-anchor="start" x="922.73" y="-15.4" font-family="Times-12" font-size="14.00"> &#160;Exports</text>
<g id="clust1" class="cluster">
<title>cluster_GablesModule</title>
<polygon fill="none" stroke="black" stroke-dasharray="1,5" points="8,-70 8,-195 1474,-195 1474,-70 8,-70"/>
</g>
<g id="clust2" class="cluster">
<title>cluster_GablesModule_declarations</title>
<polygon fill="none" stroke="black" points="263,-78 263,-130 1466,-130 1466,-78 263,-78"/>
</g>
<g id="clust9" class="cluster">
<title>cluster_GablesModule_imports</title>
<polygon fill="none" stroke="black" points="16,-78 16,-130 255,-130 255,-78 16,-78"/>
</g>
<!-- AppScanIdComponent -->
<g id="node1" class="node">
<title>AppScanIdComponent</title>
<polygon fill="#ffffb3" stroke="black" points="1458.31,-122 1313.69,-122 1313.69,-86 1458.31,-86 1458.31,-122"/>
<text text-anchor="middle" x="1386" y="-99.8" font-family="Times,serif" font-size="14.00">AppScanIdComponent</text>
</g>
<!-- GablesModule -->
<g id="node7" class="node">
<title>GablesModule</title>
<polygon fill="#8dd3c7" stroke="black" points="742.42,-187 739.42,-191 718.42,-191 715.42,-187 643.58,-187 643.58,-151 742.42,-151 742.42,-187"/>
<text text-anchor="middle" x="693" y="-164.8" font-family="Times,serif" font-size="14.00">GablesModule</text>
</g>
<!-- AppScanIdComponent&#45;&gt;GablesModule -->
<g id="edge1" class="edge">
<title>AppScanIdComponent&#45;&gt;GablesModule</title>
<path fill="none" stroke="black" d="M1386,-122.29C1386,-144.21 1386,-178 1386,-178 1386,-178 752.28,-178 752.28,-178"/>
<polygon fill="black" stroke="black" points="752.28,-174.5 742.28,-178 752.28,-181.5 752.28,-174.5"/>
</g>
<!-- CommonScanIdComponent -->
<g id="node2" class="node">
<title>CommonScanIdComponent</title>
<polygon fill="#ffffb3" stroke="black" points="1296.32,-122 1123.68,-122 1123.68,-86 1296.32,-86 1296.32,-122"/>
<text text-anchor="middle" x="1210" y="-99.8" font-family="Times,serif" font-size="14.00">CommonScanIdComponent</text>
</g>
<!-- CommonScanIdComponent&#45;&gt;GablesModule -->
<g id="edge2" class="edge">
<title>CommonScanIdComponent&#45;&gt;GablesModule</title>
<path fill="none" stroke="black" d="M1210,-122.11C1210,-141.34 1210,-169 1210,-169 1210,-169 752.57,-169 752.57,-169"/>
<polygon fill="black" stroke="black" points="752.57,-165.5 742.57,-169 752.57,-172.5 752.57,-165.5"/>
</g>
<!-- DesktopQrCodeScanIdComponent -->
<g id="node3" class="node">
<title>DesktopQrCodeScanIdComponent</title>
<polygon fill="#ffffb3" stroke="black" points="1105.68,-122 894.32,-122 894.32,-86 1105.68,-86 1105.68,-122"/>
<text text-anchor="middle" x="1000" y="-99.8" font-family="Times,serif" font-size="14.00">DesktopQrCodeScanIdComponent</text>
</g>
<!-- DesktopQrCodeScanIdComponent&#45;&gt;GablesModule -->
<g id="edge3" class="edge">
<title>DesktopQrCodeScanIdComponent&#45;&gt;GablesModule</title>
<path fill="none" stroke="black" d="M1000,-122.03C1000,-138.4 1000,-160 1000,-160 1000,-160 752.32,-160 752.32,-160"/>
<polygon fill="black" stroke="black" points="752.32,-156.5 742.32,-160 752.32,-163.5 752.32,-156.5"/>
</g>
<!-- FailedJobsDialogComponent -->
<g id="node4" class="node">
<title>FailedJobsDialogComponent</title>
<polygon fill="#ffffb3" stroke="black" points="876.82,-122 697.18,-122 697.18,-86 876.82,-86 876.82,-122"/>
<text text-anchor="middle" x="787" y="-99.8" font-family="Times,serif" font-size="14.00">FailedJobsDialogComponent</text>
</g>
<!-- FailedJobsDialogComponent&#45;&gt;GablesModule -->
<g id="edge4" class="edge">
<title>FailedJobsDialogComponent&#45;&gt;GablesModule</title>
<path fill="none" stroke="black" d="M719.78,-122.11C719.78,-122.11 719.78,-140.99 719.78,-140.99"/>
<polygon fill="black" stroke="black" points="716.28,-140.99 719.78,-150.99 723.28,-140.99 716.28,-140.99"/>
</g>
<!-- MobileScanIdComponent -->
<g id="node5" class="node">
<title>MobileScanIdComponent</title>
<polygon fill="#ffffb3" stroke="black" points="679.15,-122 518.85,-122 518.85,-86 679.15,-86 679.15,-122"/>
<text text-anchor="middle" x="599" y="-99.8" font-family="Times,serif" font-size="14.00">MobileScanIdComponent</text>
</g>
<!-- MobileScanIdComponent&#45;&gt;GablesModule -->
<g id="edge5" class="edge">
<title>MobileScanIdComponent&#45;&gt;GablesModule</title>
<path fill="none" stroke="black" d="M661.56,-122.11C661.56,-122.11 661.56,-140.99 661.56,-140.99"/>
<polygon fill="black" stroke="black" points="658.06,-140.99 661.56,-150.99 665.06,-140.99 658.06,-140.99"/>
</g>
<!-- NoCollectionPointsDialogComponent -->
<g id="node6" class="node">
<title>NoCollectionPointsDialogComponent</title>
<polygon fill="#ffffb3" stroke="black" points="500.88,-122 271.12,-122 271.12,-86 500.88,-86 500.88,-122"/>
<text text-anchor="middle" x="386" y="-99.8" font-family="Times,serif" font-size="14.00">NoCollectionPointsDialogComponent</text>
</g>
<!-- NoCollectionPointsDialogComponent&#45;&gt;GablesModule -->
<g id="edge6" class="edge">
<title>NoCollectionPointsDialogComponent&#45;&gt;GablesModule</title>
<path fill="none" stroke="black" d="M386,-122.03C386,-138.4 386,-160 386,-160 386,-160 633.68,-160 633.68,-160"/>
<polygon fill="black" stroke="black" points="633.68,-163.5 643.68,-160 633.68,-156.5 633.68,-163.5"/>
</g>
<!-- MaterialModule -->
<g id="node8" class="node">
<title>MaterialModule</title>
<polygon fill="#8dd3c7" stroke="black" points="247.47,-122 244.47,-126 223.47,-126 220.47,-122 140.53,-122 140.53,-86 247.47,-86 247.47,-122"/>
<text text-anchor="middle" x="194" y="-99.8" font-family="Times,serif" font-size="14.00">MaterialModule</text>
</g>
<!-- MaterialModule&#45;&gt;GablesModule -->
<g id="edge7" class="edge">
<title>MaterialModule&#45;&gt;GablesModule</title>
<path fill="none" stroke="black" d="M194,-122.11C194,-141.34 194,-169 194,-169 194,-169 633.79,-169 633.79,-169"/>
<polygon fill="black" stroke="black" points="633.79,-172.5 643.79,-169 633.79,-165.5 633.79,-172.5"/>
</g>
<!-- SharedModule -->
<g id="node9" class="node">
<title>SharedModule</title>
<polygon fill="#8dd3c7" stroke="black" points="122.42,-122 119.42,-126 98.42,-126 95.42,-122 23.58,-122 23.58,-86 122.42,-86 122.42,-122"/>
<text text-anchor="middle" x="73" y="-99.8" font-family="Times,serif" font-size="14.00">SharedModule</text>
</g>
<!-- SharedModule&#45;&gt;GablesModule -->
<g id="edge8" class="edge">
<title>SharedModule&#45;&gt;GablesModule</title>
<path fill="none" stroke="black" d="M73,-122.29C73,-144.21 73,-178 73,-178 73,-178 633.57,-178 633.57,-178"/>
<polygon fill="black" stroke="black" points="633.57,-181.5 643.57,-178 633.57,-174.5 633.57,-181.5"/>
</g>
</g>
</svg>
