<?xml version="1.0" encoding="UTF-8" standalone="no"?>
<!DOCTYPE svg PUBLIC "-//W3C//DTD SVG 1.1//EN"
 "http://www.w3.org/Graphics/SVG/1.1/DTD/svg11.dtd">
<!-- Generated by graphviz version 2.47.0 (20210316.0004)
 -->
<!-- Title: dependencies Pages: 1 -->
<svg width="3182pt" height="211pt"
 viewBox="0.00 0.00 3182.00 211.00" xmlns="http://www.w3.org/2000/svg" xmlns:xlink="http://www.w3.org/1999/xlink">
<g id="graph0" class="graph" transform="scale(1 1) rotate(0) translate(4 207)">
<title>dependencies</title>
<polygon fill="white" stroke="transparent" points="-4,4 -4,-207 3178,-207 3178,4 -4,4"/>
<text text-anchor="start" x="1566.01" y="-42.4" font-family="Times-12" font-weight="bold" font-size="14.00">Legend</text>
<polygon fill="#ffffb3" stroke="transparent" points="1353,-10 1353,-30 1373,-30 1373,-10 1353,-10"/>
<text text-anchor="start" x="1376.63" y="-15.4" font-family="Times-12" font-size="14.00"> &#160;Declarations</text>
<polygon fill="#8dd3c7" stroke="transparent" points="1466,-10 1466,-30 1486,-30 1486,-10 1466,-10"/>
<text text-anchor="start" x="1489.73" y="-15.4" font-family="Times-12" font-size="14.00"> &#160;Module</text>
<polygon fill="#80b1d3" stroke="transparent" points="1552,-10 1552,-30 1572,-30 1572,-10 1552,-10"/>
<text text-anchor="start" x="1575.78" y="-15.4" font-family="Times-12" font-size="14.00"> &#160;Bootstrap</text>
<polygon fill="#fdb462" stroke="transparent" points="1649,-10 1649,-30 1669,-30 1669,-10 1649,-10"/>
<text text-anchor="start" x="1672.67" y="-15.4" font-family="Times-12" font-size="14.00"> &#160;Providers</text>
<polygon fill="#fb8072" stroke="transparent" points="1745,-10 1745,-30 1765,-30 1765,-10 1745,-10"/>
<text text-anchor="start" x="1768.73" y="-15.4" font-family="Times-12" font-size="14.00"> &#160;Exports</text>
<g id="clust1" class="cluster">
<title>cluster_ThemePagesModule</title>
<polygon fill="none" stroke="black" stroke-dasharray="1,5" points="8,-70 8,-195 3166,-195 3166,-70 8,-70"/>
</g>
<g id="clust2" class="cluster">
<title>cluster_ThemePagesModule_declarations</title>
<polygon fill="none" stroke="black" points="146,-78 146,-130 3158,-130 3158,-78 146,-78"/>
</g>
<g id="clust18" class="cluster">
<title>cluster_ThemePagesModule_imports</title>
<polygon fill="none" stroke="black" points="16,-78 16,-130 138,-130 138,-78 16,-78"/>
</g>
<!-- AccountSettingComponent -->
<g id="node1" class="node">
<title>AccountSettingComponent</title>
<polygon fill="#ffffb3" stroke="black" points="3150.43,-122 2981.57,-122 2981.57,-86 3150.43,-86 3150.43,-122"/>
<text text-anchor="middle" x="3066" y="-99.8" font-family="Times,serif" font-size="14.00">AccountSettingComponent</text>
</g>
<!-- ThemePagesModule -->
<g id="node16" class="node">
<title>ThemePagesModule</title>
<polygon fill="#8dd3c7" stroke="black" points="1614.58,-187 1611.58,-191 1590.58,-191 1587.58,-187 1483.42,-187 1483.42,-151 1614.58,-151 1614.58,-187"/>
<text text-anchor="middle" x="1549" y="-164.8" font-family="Times,serif" font-size="14.00">ThemePagesModule</text>
</g>
<!-- AccountSettingComponent&#45;&gt;ThemePagesModule -->
<g id="edge1" class="edge">
<title>AccountSettingComponent&#45;&gt;ThemePagesModule</title>
<path fill="none" stroke="black" d="M3066,-122.32C3066,-145.66 3066,-183 3066,-183 3066,-183 1624.67,-183 1624.67,-183"/>
<polygon fill="black" stroke="black" points="1624.67,-179.5 1614.67,-183 1624.67,-186.5 1624.67,-179.5"/>
</g>
<!-- AddUserDialogComponent -->
<g id="node2" class="node">
<title>AddUserDialogComponent</title>
<polygon fill="#ffffb3" stroke="black" points="2963.97,-122 2794.03,-122 2794.03,-86 2963.97,-86 2963.97,-122"/>
<text text-anchor="middle" x="2879" y="-99.8" font-family="Times,serif" font-size="14.00">AddUserDialogComponent</text>
</g>
<!-- AddUserDialogComponent&#45;&gt;ThemePagesModule -->
<g id="edge2" class="edge">
<title>AddUserDialogComponent&#45;&gt;ThemePagesModule</title>
<path fill="none" stroke="black" d="M2879,-122.29C2879,-144.21 2879,-178 2879,-178 2879,-178 1624.95,-178 1624.95,-178"/>
<polygon fill="black" stroke="black" points="1624.95,-174.5 1614.95,-178 1624.95,-181.5 1624.95,-174.5"/>
</g>
<!-- CollectionPointComponent -->
<g id="node3" class="node">
<title>CollectionPointComponent</title>
<polygon fill="#ffffb3" stroke="black" points="2775.72,-122 2606.28,-122 2606.28,-86 2775.72,-86 2775.72,-122"/>
<text text-anchor="middle" x="2691" y="-99.8" font-family="Times,serif" font-size="14.00">CollectionPointComponent</text>
</g>
<!-- CollectionPointComponent&#45;&gt;ThemePagesModule -->
<g id="edge3" class="edge">
<title>CollectionPointComponent&#45;&gt;ThemePagesModule</title>
<path fill="none" stroke="black" d="M2691,-122.03C2691,-142.77 2691,-174 2691,-174 2691,-174 1624.92,-174 1624.92,-174"/>
<polygon fill="black" stroke="black" points="1624.92,-170.5 1614.92,-174 1624.92,-177.5 1624.92,-170.5"/>
</g>
<!-- CompanyManagementComponent -->
<g id="node4" class="node">
<title>CompanyManagementComponent</title>
<polygon fill="#ffffb3" stroke="black" points="2588.36,-122 2379.64,-122 2379.64,-86 2588.36,-86 2588.36,-122"/>
<text text-anchor="middle" x="2484" y="-99.8" font-family="Times,serif" font-size="14.00">CompanyManagementComponent</text>
</g>
<!-- CompanyManagementComponent&#45;&gt;ThemePagesModule -->
<g id="edge4" class="edge">
<title>CompanyManagementComponent&#45;&gt;ThemePagesModule</title>
<path fill="none" stroke="black" d="M2484,-122.11C2484,-141.34 2484,-169 2484,-169 2484,-169 1624.75,-169 1624.75,-169"/>
<polygon fill="black" stroke="black" points="1624.75,-165.5 1614.75,-169 1624.75,-172.5 1624.75,-165.5"/>
</g>
<!-- CreateCompanyComponent -->
<g id="node5" class="node">
<title>CreateCompanyComponent</title>
<polygon fill="#ffffb3" stroke="black" points="2361.31,-122 2188.69,-122 2188.69,-86 2361.31,-86 2361.31,-122"/>
<text text-anchor="middle" x="2275" y="-99.8" font-family="Times,serif" font-size="14.00">CreateCompanyComponent</text>
</g>
<!-- CreateCompanyComponent&#45;&gt;ThemePagesModule -->
<g id="edge5" class="edge">
<title>CreateCompanyComponent&#45;&gt;ThemePagesModule</title>
<path fill="none" stroke="black" d="M2275,-122.3C2275,-140.27 2275,-165 2275,-165 2275,-165 1624.71,-165 1624.71,-165"/>
<polygon fill="black" stroke="black" points="1624.71,-161.5 1614.71,-165 1624.71,-168.5 1624.71,-161.5"/>
</g>
<!-- CreateNewFormDialogComponent -->
<g id="node6" class="node">
<title>CreateNewFormDialogComponent</title>
<polygon fill="#ffffb3" stroke="black" points="2170.23,-122 1957.77,-122 1957.77,-86 2170.23,-86 2170.23,-122"/>
<text text-anchor="middle" x="2064" y="-99.8" font-family="Times,serif" font-size="14.00">CreateNewFormDialogComponent</text>
</g>
<!-- CreateNewFormDialogComponent&#45;&gt;ThemePagesModule -->
<g id="edge6" class="edge">
<title>CreateNewFormDialogComponent&#45;&gt;ThemePagesModule</title>
<path fill="none" stroke="black" d="M2064,-122.03C2064,-138.4 2064,-160 2064,-160 2064,-160 1624.75,-160 1624.75,-160"/>
<polygon fill="black" stroke="black" points="1624.75,-156.5 1614.75,-160 1624.75,-163.5 1624.75,-156.5"/>
</g>
<!-- DeleteFormDialogComponent -->
<g id="node7" class="node">
<title>DeleteFormDialogComponent</title>
<polygon fill="#ffffb3" stroke="black" points="1939.3,-122 1752.7,-122 1752.7,-86 1939.3,-86 1939.3,-122"/>
<text text-anchor="middle" x="1846" y="-99.8" font-family="Times,serif" font-size="14.00">DeleteFormDialogComponent</text>
</g>
<!-- DeleteFormDialogComponent&#45;&gt;ThemePagesModule -->
<g id="edge7" class="edge">
<title>DeleteFormDialogComponent&#45;&gt;ThemePagesModule</title>
<path fill="none" stroke="black" d="M1846,-122.19C1846,-137.18 1846,-156 1846,-156 1846,-156 1624.55,-156 1624.55,-156"/>
<polygon fill="black" stroke="black" points="1624.55,-152.5 1614.55,-156 1624.55,-159.5 1624.55,-152.5"/>
</g>
<!-- FormManagementComponent -->
<g id="node8" class="node">
<title>FormManagementComponent</title>
<polygon fill="#ffffb3" stroke="black" points="1734.25,-122 1549.75,-122 1549.75,-86 1734.25,-86 1734.25,-122"/>
<text text-anchor="middle" x="1642" y="-99.8" font-family="Times,serif" font-size="14.00">FormManagementComponent</text>
</g>
<!-- FormManagementComponent&#45;&gt;ThemePagesModule -->
<g id="edge8" class="edge">
<title>FormManagementComponent&#45;&gt;ThemePagesModule</title>
<path fill="none" stroke="black" d="M1582.08,-122.11C1582.08,-122.11 1582.08,-140.99 1582.08,-140.99"/>
<polygon fill="black" stroke="black" points="1578.58,-140.99 1582.08,-150.99 1585.58,-140.99 1578.58,-140.99"/>
</g>
<!-- FormsTableComponent -->
<g id="node9" class="node">
<title>FormsTableComponent</title>
<polygon fill="#ffffb3" stroke="black" points="1531.48,-122 1382.52,-122 1382.52,-86 1531.48,-86 1531.48,-122"/>
<text text-anchor="middle" x="1457" y="-99.8" font-family="Times,serif" font-size="14.00">FormsTableComponent</text>
</g>
<!-- FormsTableComponent&#45;&gt;ThemePagesModule -->
<g id="edge9" class="edge">
<title>FormsTableComponent&#45;&gt;ThemePagesModule</title>
<path fill="none" stroke="black" d="M1507.48,-122.11C1507.48,-122.11 1507.48,-140.99 1507.48,-140.99"/>
<polygon fill="black" stroke="black" points="1503.98,-140.99 1507.48,-150.99 1510.98,-140.99 1503.98,-140.99"/>
</g>
<!-- HowDoesThisWorkDialogComponent -->
<g id="node10" class="node">
<title>HowDoesThisWorkDialogComponent</title>
<polygon fill="#ffffb3" stroke="black" points="1364.18,-122 1131.82,-122 1131.82,-86 1364.18,-86 1364.18,-122"/>
<text text-anchor="middle" x="1248" y="-99.8" font-family="Times,serif" font-size="14.00">HowDoesThisWorkDialogComponent</text>
</g>
<!-- HowDoesThisWorkDialogComponent&#45;&gt;ThemePagesModule -->
<g id="edge10" class="edge">
<title>HowDoesThisWorkDialogComponent&#45;&gt;ThemePagesModule</title>
<path fill="none" stroke="black" d="M1248,-122.19C1248,-137.18 1248,-156 1248,-156 1248,-156 1473.32,-156 1473.32,-156"/>
<polygon fill="black" stroke="black" points="1473.32,-159.5 1483.32,-156 1473.32,-152.5 1473.32,-159.5"/>
</g>
<!-- InviteUsersComponent -->
<g id="node11" class="node">
<title>InviteUsersComponent</title>
<polygon fill="#ffffb3" stroke="black" points="1113.86,-122 968.14,-122 968.14,-86 1113.86,-86 1113.86,-122"/>
<text text-anchor="middle" x="1041" y="-99.8" font-family="Times,serif" font-size="14.00">InviteUsersComponent</text>
</g>
<!-- InviteUsersComponent&#45;&gt;ThemePagesModule -->
<g id="edge11" class="edge">
<title>InviteUsersComponent&#45;&gt;ThemePagesModule</title>
<path fill="none" stroke="black" d="M1041,-122.03C1041,-138.4 1041,-160 1041,-160 1041,-160 1473.37,-160 1473.37,-160"/>
<polygon fill="black" stroke="black" points="1473.37,-163.5 1483.37,-160 1473.37,-156.5 1473.37,-163.5"/>
</g>
<!-- UpdateEmailDialogComponent -->
<g id="node12" class="node">
<title>UpdateEmailDialogComponent</title>
<polygon fill="#ffffb3" stroke="black" points="949.8,-122 756.2,-122 756.2,-86 949.8,-86 949.8,-122"/>
<text text-anchor="middle" x="853" y="-99.8" font-family="Times,serif" font-size="14.00">UpdateEmailDialogComponent</text>
</g>
<!-- UpdateEmailDialogComponent&#45;&gt;ThemePagesModule -->
<g id="edge12" class="edge">
<title>UpdateEmailDialogComponent&#45;&gt;ThemePagesModule</title>
<path fill="none" stroke="black" d="M853,-122.3C853,-140.27 853,-165 853,-165 853,-165 1473.21,-165 1473.21,-165"/>
<polygon fill="black" stroke="black" points="1473.21,-168.5 1483.21,-165 1473.21,-161.5 1473.21,-168.5"/>
</g>
<!-- UpdateFormDialogComponent -->
<g id="node13" class="node">
<title>UpdateFormDialogComponent</title>
<polygon fill="#ffffb3" stroke="black" points="738.2,-122 547.8,-122 547.8,-86 738.2,-86 738.2,-122"/>
<text text-anchor="middle" x="643" y="-99.8" font-family="Times,serif" font-size="14.00">UpdateFormDialogComponent</text>
</g>
<!-- UpdateFormDialogComponent&#45;&gt;ThemePagesModule -->
<g id="edge13" class="edge">
<title>UpdateFormDialogComponent&#45;&gt;ThemePagesModule</title>
<path fill="none" stroke="black" d="M643,-122.11C643,-141.34 643,-169 643,-169 643,-169 1473.11,-169 1473.11,-169"/>
<polygon fill="black" stroke="black" points="1473.11,-172.5 1483.11,-169 1473.11,-165.5 1473.11,-172.5"/>
</g>
<!-- UpdatePasswordDialogComponent -->
<g id="node14" class="node">
<title>UpdatePasswordDialogComponent</title>
<polygon fill="#ffffb3" stroke="black" points="529.52,-122 316.48,-122 316.48,-86 529.52,-86 529.52,-122"/>
<text text-anchor="middle" x="423" y="-99.8" font-family="Times,serif" font-size="14.00">UpdatePasswordDialogComponent</text>
</g>
<!-- UpdatePasswordDialogComponent&#45;&gt;ThemePagesModule -->
<g id="edge14" class="edge">
<title>UpdatePasswordDialogComponent&#45;&gt;ThemePagesModule</title>
<path fill="none" stroke="black" d="M423,-122.03C423,-142.77 423,-174 423,-174 423,-174 1473.18,-174 1473.18,-174"/>
<polygon fill="black" stroke="black" points="1473.18,-177.5 1483.18,-174 1473.18,-170.5 1473.18,-177.5"/>
</g>
<!-- ViewUsersComponent -->
<g id="node15" class="node">
<title>ViewUsersComponent</title>
<polygon fill="#ffffb3" stroke="black" points="297.52,-122 154.48,-122 154.48,-86 297.52,-86 297.52,-122"/>
<text text-anchor="middle" x="226" y="-99.8" font-family="Times,serif" font-size="14.00">ViewUsersComponent</text>
</g>
<!-- ViewUsersComponent&#45;&gt;ThemePagesModule -->
<g id="edge15" class="edge">
<title>ViewUsersComponent&#45;&gt;ThemePagesModule</title>
<path fill="none" stroke="black" d="M226,-122.29C226,-144.21 226,-178 226,-178 226,-178 1473.39,-178 1473.39,-178"/>
<polygon fill="black" stroke="black" points="1473.39,-181.5 1483.39,-178 1473.39,-174.5 1473.39,-181.5"/>
</g>
<!-- MaterialModule -->
<g id="node17" class="node">
<title>MaterialModule</title>
<polygon fill="#8dd3c7" stroke="black" points="130.47,-122 127.47,-126 106.47,-126 103.47,-122 23.53,-122 23.53,-86 130.47,-86 130.47,-122"/>
<text text-anchor="middle" x="77" y="-99.8" font-family="Times,serif" font-size="14.00">MaterialModule</text>
</g>
<!-- MaterialModule&#45;&gt;ThemePagesModule -->
<g id="edge16" class="edge">
<title>MaterialModule&#45;&gt;ThemePagesModule</title>
<path fill="none" stroke="black" d="M77,-122.32C77,-145.66 77,-183 77,-183 77,-183 1473.37,-183 1473.37,-183"/>
<polygon fill="black" stroke="black" points="1473.37,-186.5 1483.37,-183 1473.37,-179.5 1473.37,-186.5"/>
</g>
</g>
</svg>
