<?xml version="1.0" encoding="UTF-8" standalone="no"?>
<!DOCTYPE svg PUBLIC "-//W3C//DTD SVG 1.1//EN"
 "http://www.w3.org/Graphics/SVG/1.1/DTD/svg11.dtd">
<!-- Generated by graphviz version 2.47.0 (20210316.0004)
 -->
<!-- Title: dependencies Pages: 1 -->
<svg width="504pt" height="211pt"
 viewBox="0.00 0.00 504.00 211.00" xmlns="http://www.w3.org/2000/svg" xmlns:xlink="http://www.w3.org/1999/xlink">
<g id="graph0" class="graph" transform="scale(1 1) rotate(0) translate(4 207)">
<title>dependencies</title>
<polygon fill="white" stroke="transparent" points="-4,4 -4,-207 500,-207 500,4 -4,4"/>
<text text-anchor="start" x="227.01" y="-42.4" font-family="Times-12" font-weight="bold" font-size="14.00">Legend</text>
<polygon fill="#ffffb3" stroke="transparent" points="14,-10 14,-30 34,-30 34,-10 14,-10"/>
<text text-anchor="start" x="37.63" y="-15.4" font-family="Times-12" font-size="14.00"> &#160;Declarations</text>
<polygon fill="#8dd3c7" stroke="transparent" points="127,-10 127,-30 147,-30 147,-10 127,-10"/>
<text text-anchor="start" x="150.73" y="-15.4" font-family="Times-12" font-size="14.00"> &#160;Module</text>
<polygon fill="#80b1d3" stroke="transparent" points="213,-10 213,-30 233,-30 233,-10 213,-10"/>
<text text-anchor="start" x="236.78" y="-15.4" font-family="Times-12" font-size="14.00"> &#160;Bootstrap</text>
<polygon fill="#fdb462" stroke="transparent" points="310,-10 310,-30 330,-30 330,-10 310,-10"/>
<text text-anchor="start" x="333.67" y="-15.4" font-family="Times-12" font-size="14.00"> &#160;Providers</text>
<polygon fill="#fb8072" stroke="transparent" points="406,-10 406,-30 426,-30 426,-10 406,-10"/>
<text text-anchor="start" x="429.73" y="-15.4" font-family="Times-12" font-size="14.00"> &#160;Exports</text>
<g id="clust1" class="cluster">
<title>cluster_LandingPageModule</title>
<polygon fill="none" stroke="black" stroke-dasharray="1,5" points="78,-70 78,-195 418,-195 418,-70 78,-70"/>
</g>
<g id="clust2" class="cluster">
<title>cluster_LandingPageModule_declarations</title>
<polygon fill="none" stroke="black" points="216,-78 216,-130 410,-130 410,-78 216,-78"/>
</g>
<g id="clust4" class="cluster">
<title>cluster_LandingPageModule_imports</title>
<polygon fill="none" stroke="black" points="86,-78 86,-130 208,-130 208,-78 86,-78"/>
</g>
<!-- AppLandingpageComponent -->
<g id="node1" class="node">
<title>AppLandingpageComponent</title>
<polygon fill="#ffffb3" stroke="black" points="402.03,-122 223.97,-122 223.97,-86 402.03,-86 402.03,-122"/>
<text text-anchor="middle" x="313" y="-99.8" font-family="Times,serif" font-size="14.00">AppLandingpageComponent</text>
</g>
<!-- LandingPageModule -->
<g id="node2" class="node">
<title>LandingPageModule</title>
<polygon fill="#8dd3c7" stroke="black" points="299.92,-187 296.92,-191 275.92,-191 272.92,-187 166.08,-187 166.08,-151 299.92,-151 299.92,-187"/>
<text text-anchor="middle" x="233" y="-164.8" font-family="Times,serif" font-size="14.00">LandingPageModule</text>
</g>
<!-- AppLandingpageComponent&#45;&gt;LandingPageModule -->
<g id="edge1" class="edge">
<title>AppLandingpageComponent&#45;&gt;LandingPageModule</title>
<path fill="none" stroke="black" d="M261.72,-122.11C261.72,-122.11 261.72,-140.99 261.72,-140.99"/>
<polygon fill="black" stroke="black" points="258.22,-140.99 261.72,-150.99 265.22,-140.99 258.22,-140.99"/>
</g>
<!-- MaterialModule -->
<g id="node3" class="node">
<title>MaterialModule</title>
<polygon fill="#8dd3c7" stroke="black" points="200.47,-122 197.47,-126 176.47,-126 173.47,-122 93.53,-122 93.53,-86 200.47,-86 200.47,-122"/>
<text text-anchor="middle" x="147" y="-99.8" font-family="Times,serif" font-size="14.00">MaterialModule</text>
</g>
<!-- MaterialModule&#45;&gt;LandingPageModule -->
<g id="edge2" class="edge">
<title>MaterialModule&#45;&gt;LandingPageModule</title>
<path fill="none" stroke="black" d="M183.39,-122.11C183.39,-122.11 183.39,-140.99 183.39,-140.99"/>
<polygon fill="black" stroke="black" points="179.89,-140.99 183.39,-150.99 186.89,-140.99 179.89,-140.99"/>
</g>
</g>
</svg>
