<?xml version="1.0" encoding="UTF-8" standalone="no"?>
<!DOCTYPE svg PUBLIC "-//W3C//DTD SVG 1.1//EN"
 "http://www.w3.org/Graphics/SVG/1.1/DTD/svg11.dtd">
<!-- Generated by graphviz version 2.47.0 (20210316.0004)
 -->
<!-- Title: dependencies Pages: 1 -->
<svg width="1366pt" height="284pt"
 viewBox="0.00 0.00 1366.00 284.00" xmlns="http://www.w3.org/2000/svg" xmlns:xlink="http://www.w3.org/1999/xlink">
<g id="graph0" class="graph" transform="scale(1 1) rotate(0) translate(4 280)">
<title>dependencies</title>
<polygon fill="white" stroke="transparent" points="-4,4 -4,-280 1362,-280 1362,4 -4,4"/>
<text text-anchor="start" x="658.01" y="-42.4" font-family="Times-12" font-weight="bold" font-size="14.00">Legend</text>
<polygon fill="#ffffb3" stroke="transparent" points="445,-10 445,-30 465,-30 465,-10 445,-10"/>
<text text-anchor="start" x="468.63" y="-15.4" font-family="Times-12" font-size="14.00"> &#160;Declarations</text>
<polygon fill="#8dd3c7" stroke="transparent" points="558,-10 558,-30 578,-30 578,-10 558,-10"/>
<text text-anchor="start" x="581.73" y="-15.4" font-family="Times-12" font-size="14.00"> &#160;Module</text>
<polygon fill="#80b1d3" stroke="transparent" points="644,-10 644,-30 664,-30 664,-10 644,-10"/>
<text text-anchor="start" x="667.78" y="-15.4" font-family="Times-12" font-size="14.00"> &#160;Bootstrap</text>
<polygon fill="#fdb462" stroke="transparent" points="741,-10 741,-30 761,-30 761,-10 741,-10"/>
<text text-anchor="start" x="764.67" y="-15.4" font-family="Times-12" font-size="14.00"> &#160;Providers</text>
<polygon fill="#fb8072" stroke="transparent" points="837,-10 837,-30 857,-30 857,-10 837,-10"/>
<text text-anchor="start" x="860.73" y="-15.4" font-family="Times-12" font-size="14.00"> &#160;Exports</text>
<g id="clust1" class="cluster">
<title>cluster_SharedModule</title>
<polygon fill="none" stroke="black" stroke-dasharray="1,5" points="8,-70 8,-268 1350,-268 1350,-70 8,-70"/>
</g>
<g id="clust10" class="cluster">
<title>cluster_SharedModule_exports</title>
<polygon fill="none" stroke="black" points="324,-208 324,-260 1097,-260 1097,-208 324,-208"/>
</g>
<g id="clust9" class="cluster">
<title>cluster_SharedModule_imports</title>
<polygon fill="none" stroke="black" points="1220,-78 1220,-130 1342,-130 1342,-78 1220,-78"/>
</g>
<g id="clust2" class="cluster">
<title>cluster_SharedModule_declarations</title>
<polygon fill="none" stroke="black" points="16,-78 16,-130 1212,-130 1212,-78 16,-78"/>
</g>
<!-- CheckingIpsDialogComponent -->
<g id="node1" class="node">
<title>CheckingIpsDialogComponent</title>
<polygon fill="#ffffb3" stroke="black" points="1204.2,-122 1013.8,-122 1013.8,-86 1204.2,-86 1204.2,-122"/>
<text text-anchor="middle" x="1109" y="-99.8" font-family="Times,serif" font-size="14.00">CheckingIpsDialogComponent</text>
</g>
<!-- SharedModule -->
<g id="node7" class="node">
<title>SharedModule</title>
<polygon fill="#8dd3c7" stroke="black" points="748.42,-187 745.42,-191 724.42,-191 721.42,-187 649.58,-187 649.58,-151 748.42,-151 748.42,-187"/>
<text text-anchor="middle" x="699" y="-164.8" font-family="Times,serif" font-size="14.00">SharedModule</text>
</g>
<!-- CheckingIpsDialogComponent&#45;&gt;SharedModule -->
<g id="edge1" class="edge">
<title>CheckingIpsDialogComponent&#45;&gt;SharedModule</title>
<path fill="none" stroke="black" d="M1051.38,-122.27C1051.38,-140.56 1051.38,-166 1051.38,-166 1051.38,-166 758.37,-166 758.37,-166"/>
<polygon fill="black" stroke="black" points="758.37,-162.5 748.37,-166 758.37,-169.5 758.37,-162.5"/>
</g>
<!-- ConsentDialogComponent -->
<g id="node2" class="node">
<title>ConsentDialogComponent</title>
<polygon fill="#ffffb3" stroke="black" points="995.82,-122 830.18,-122 830.18,-86 995.82,-86 995.82,-122"/>
<text text-anchor="middle" x="913" y="-99.8" font-family="Times,serif" font-size="14.00">ConsentDialogComponent</text>
</g>
<!-- ConsentDialogComponent&#45;&gt;SharedModule -->
<g id="edge2" class="edge">
<title>ConsentDialogComponent&#45;&gt;SharedModule</title>
<path fill="none" stroke="black" d="M853.88,-122.01C853.88,-138.05 853.88,-159 853.88,-159 853.88,-159 758.43,-159 758.43,-159"/>
<polygon fill="black" stroke="black" points="758.43,-155.5 748.43,-159 758.43,-162.5 758.43,-155.5"/>
</g>
<!-- ExpandDataModalMobileComponent -->
<g id="node3" class="node">
<title>ExpandDataModalMobileComponent</title>
<polygon fill="#ffffb3" stroke="black" points="812.52,-122 585.48,-122 585.48,-86 812.52,-86 812.52,-122"/>
<text text-anchor="middle" x="699" y="-99.8" font-family="Times,serif" font-size="14.00">ExpandDataModalMobileComponent</text>
</g>
<!-- ExpandDataModalMobileComponent&#45;&gt;SharedModule -->
<g id="edge3" class="edge">
<title>ExpandDataModalMobileComponent&#45;&gt;SharedModule</title>
<path fill="none" stroke="black" d="M699,-122.11C699,-122.11 699,-140.99 699,-140.99"/>
<polygon fill="black" stroke="black" points="695.5,-140.99 699,-150.99 702.5,-140.99 695.5,-140.99"/>
</g>
<!-- RedirectDialogComponent -->
<g id="node4" class="node">
<title>RedirectDialogComponent</title>
<polygon fill="#ffffb3" stroke="black" points="567.36,-122 400.64,-122 400.64,-86 567.36,-86 567.36,-122"/>
<text text-anchor="middle" x="484" y="-99.8" font-family="Times,serif" font-size="14.00">RedirectDialogComponent</text>
</g>
<!-- RedirectDialogComponent&#45;&gt;SharedModule -->
<g id="edge4" class="edge">
<title>RedirectDialogComponent&#45;&gt;SharedModule</title>
<path fill="none" stroke="black" d="M543.62,-122.01C543.62,-138.05 543.62,-159 543.62,-159 543.62,-159 639.41,-159 639.41,-159"/>
<polygon fill="black" stroke="black" points="639.41,-162.5 649.41,-159 639.41,-155.5 639.41,-162.5"/>
</g>
<!-- TimeoutDialogComponent -->
<g id="node5" class="node">
<title>TimeoutDialogComponent</title>
<polygon fill="#ffffb3" stroke="black" points="382.37,-122 215.63,-122 215.63,-86 382.37,-86 382.37,-122"/>
<text text-anchor="middle" x="299" y="-99.8" font-family="Times,serif" font-size="14.00">TimeoutDialogComponent</text>
</g>
<!-- TimeoutDialogComponent&#45;&gt;SharedModule -->
<g id="edge5" class="edge">
<title>TimeoutDialogComponent&#45;&gt;SharedModule</title>
<path fill="none" stroke="black" d="M357.12,-122.27C357.12,-140.56 357.12,-166 357.12,-166 357.12,-166 639.65,-166 639.65,-166"/>
<polygon fill="black" stroke="black" points="639.65,-169.5 649.65,-166 639.65,-162.5 639.65,-169.5"/>
</g>
<!-- WelcomeDialogComponent -->
<g id="node6" class="node">
<title>WelcomeDialogComponent</title>
<polygon fill="#ffffb3" stroke="black" points="197.57,-122 24.43,-122 24.43,-86 197.57,-86 197.57,-122"/>
<text text-anchor="middle" x="111" y="-99.8" font-family="Times,serif" font-size="14.00">WelcomeDialogComponent</text>
</g>
<!-- WelcomeDialogComponent&#45;&gt;SharedModule -->
<g id="edge6" class="edge">
<title>WelcomeDialogComponent&#45;&gt;SharedModule</title>
<path fill="none" stroke="black" d="M111,-122.13C111,-142.57 111,-173 111,-173 111,-173 639.63,-173 639.63,-173"/>
<polygon fill="black" stroke="black" points="639.63,-176.5 649.63,-173 639.63,-169.5 639.63,-176.5"/>
</g>
<!-- CheckingIpsDialogComponent  -->
<g id="node9" class="node">
<title>CheckingIpsDialogComponent </title>
<polygon fill="#fb8072" stroke="black" points="1088.7,-252 895.3,-252 895.3,-216 1088.7,-216 1088.7,-252"/>
<text text-anchor="middle" x="992" y="-229.8" font-family="Times,serif" font-size="14.00">CheckingIpsDialogComponent </text>
</g>
<!-- SharedModule&#45;&gt;CheckingIpsDialogComponent  -->
<g id="edge8" class="edge">
<title>SharedModule&#45;&gt;CheckingIpsDialogComponent </title>
<path fill="none" stroke="black" stroke-dasharray="5,2" d="M748.27,-180C820.18,-180 945.41,-180 945.41,-180 945.41,-180 945.41,-205.72 945.41,-205.72"/>
<polygon fill="black" stroke="black" points="941.91,-205.72 945.41,-215.72 948.91,-205.72 941.91,-205.72"/>
</g>
<!-- ConsentDialogComponent  -->
<g id="node10" class="node">
<title>ConsentDialogComponent </title>
<polygon fill="#fb8072" stroke="black" points="877.32,-252 708.68,-252 708.68,-216 877.32,-216 877.32,-252"/>
<text text-anchor="middle" x="793" y="-229.8" font-family="Times,serif" font-size="14.00">ConsentDialogComponent </text>
</g>
<!-- SharedModule&#45;&gt;ConsentDialogComponent  -->
<g id="edge9" class="edge">
<title>SharedModule&#45;&gt;ConsentDialogComponent </title>
<path fill="none" stroke="black" stroke-dasharray="5,2" d="M728.4,-187.11C728.4,-187.11 728.4,-205.99 728.4,-205.99"/>
<polygon fill="black" stroke="black" points="724.9,-205.99 728.4,-215.99 731.9,-205.99 724.9,-205.99"/>
</g>
<!-- RedirectDialogComponent  -->
<g id="node11" class="node">
<title>RedirectDialogComponent </title>
<polygon fill="#fb8072" stroke="black" points="690.36,-252 519.64,-252 519.64,-216 690.36,-216 690.36,-252"/>
<text text-anchor="middle" x="605" y="-229.8" font-family="Times,serif" font-size="14.00">RedirectDialogComponent </text>
</g>
<!-- SharedModule&#45;&gt;RedirectDialogComponent  -->
<g id="edge10" class="edge">
<title>SharedModule&#45;&gt;RedirectDialogComponent </title>
<path fill="none" stroke="black" stroke-dasharray="5,2" d="M669.98,-187.11C669.98,-187.11 669.98,-205.99 669.98,-205.99"/>
<polygon fill="black" stroke="black" points="666.48,-205.99 669.98,-215.99 673.48,-205.99 666.48,-205.99"/>
</g>
<!-- TimeoutDialogComponent  -->
<g id="node12" class="node">
<title>TimeoutDialogComponent </title>
<polygon fill="#fb8072" stroke="black" points="502.37,-252 331.63,-252 331.63,-216 502.37,-216 502.37,-252"/>
<text text-anchor="middle" x="417" y="-229.8" font-family="Times,serif" font-size="14.00">TimeoutDialogComponent </text>
</g>
<!-- SharedModule&#45;&gt;TimeoutDialogComponent  -->
<g id="edge11" class="edge">
<title>SharedModule&#45;&gt;TimeoutDialogComponent </title>
<path fill="none" stroke="black" stroke-dasharray="5,2" d="M649.78,-180C577.57,-180 451.38,-180 451.38,-180 451.38,-180 451.38,-205.72 451.38,-205.72"/>
<polygon fill="black" stroke="black" points="447.88,-205.72 451.38,-215.72 454.88,-205.72 447.88,-205.72"/>
</g>
<!-- MaterialModule -->
<g id="node8" class="node">
<title>MaterialModule</title>
<polygon fill="#8dd3c7" stroke="black" points="1334.47,-122 1331.47,-126 1310.47,-126 1307.47,-122 1227.53,-122 1227.53,-86 1334.47,-86 1334.47,-122"/>
<text text-anchor="middle" x="1281" y="-99.8" font-family="Times,serif" font-size="14.00">MaterialModule</text>
</g>
<!-- MaterialModule&#45;&gt;SharedModule -->
<g id="edge7" class="edge">
<title>MaterialModule&#45;&gt;SharedModule</title>
<path fill="none" stroke="black" d="M1281,-122.13C1281,-142.57 1281,-173 1281,-173 1281,-173 758.62,-173 758.62,-173"/>
<polygon fill="black" stroke="black" points="758.62,-169.5 748.62,-173 758.62,-176.5 758.62,-169.5"/>
</g>
</g>
</svg>
