<?xml version="1.0" encoding="UTF-8" standalone="no"?>
<!DOCTYPE svg PUBLIC "-//W3C//DTD SVG 1.1//EN"
 "http://www.w3.org/Graphics/SVG/1.1/DTD/svg11.dtd">
<!-- Generated by graphviz version 2.47.0 (20210316.0004)
 -->
<!-- Title: dependencies Pages: 1 -->
<svg width="2784pt" height="211pt"
 viewBox="0.00 0.00 2784.00 211.00" xmlns="http://www.w3.org/2000/svg" xmlns:xlink="http://www.w3.org/1999/xlink">
<g id="graph0" class="graph" transform="scale(1 1) rotate(0) translate(4 207)">
<title>dependencies</title>
<polygon fill="white" stroke="transparent" points="-4,4 -4,-207 2780,-207 2780,4 -4,4"/>
<text text-anchor="start" x="1367.01" y="-42.4" font-family="Times-12" font-weight="bold" font-size="14.00">Legend</text>
<polygon fill="#ffffb3" stroke="transparent" points="1154,-10 1154,-30 1174,-30 1174,-10 1154,-10"/>
<text text-anchor="start" x="1177.63" y="-15.4" font-family="Times-12" font-size="14.00"> &#160;Declarations</text>
<polygon fill="#8dd3c7" stroke="transparent" points="1267,-10 1267,-30 1287,-30 1287,-10 1267,-10"/>
<text text-anchor="start" x="1290.73" y="-15.4" font-family="Times-12" font-size="14.00"> &#160;Module</text>
<polygon fill="#80b1d3" stroke="transparent" points="1353,-10 1353,-30 1373,-30 1373,-10 1353,-10"/>
<text text-anchor="start" x="1376.78" y="-15.4" font-family="Times-12" font-size="14.00"> &#160;Bootstrap</text>
<polygon fill="#fdb462" stroke="transparent" points="1450,-10 1450,-30 1470,-30 1470,-10 1450,-10"/>
<text text-anchor="start" x="1473.67" y="-15.4" font-family="Times-12" font-size="14.00"> &#160;Providers</text>
<polygon fill="#fb8072" stroke="transparent" points="1546,-10 1546,-30 1566,-30 1566,-10 1546,-10"/>
<text text-anchor="start" x="1569.73" y="-15.4" font-family="Times-12" font-size="14.00"> &#160;Exports</text>
<g id="clust1" class="cluster">
<title>cluster_AuthenticationModule</title>
<polygon fill="none" stroke="black" stroke-dasharray="1,5" points="8,-70 8,-195 2768,-195 2768,-70 8,-70"/>
</g>
<g id="clust2" class="cluster">
<title>cluster_AuthenticationModule_declarations</title>
<polygon fill="none" stroke="black" points="263,-78 263,-130 2760,-130 2760,-78 263,-78"/>
</g>
<g id="clust15" class="cluster">
<title>cluster_AuthenticationModule_imports</title>
<polygon fill="none" stroke="black" points="16,-78 16,-130 255,-130 255,-78 16,-78"/>
</g>
<!-- AppBoxedForgotPasswordComponent -->
<g id="node1" class="node">
<title>AppBoxedForgotPasswordComponent</title>
<polygon fill="#ffffb3" stroke="black" points="2752.48,-122 2519.52,-122 2519.52,-86 2752.48,-86 2752.48,-122"/>
<text text-anchor="middle" x="2636" y="-99.8" font-family="Times,serif" font-size="14.00">AppBoxedForgotPasswordComponent</text>
</g>
<!-- AuthenticationModule -->
<g id="node13" class="node">
<title>AuthenticationModule</title>
<polygon fill="#8dd3c7" stroke="black" points="1392.25,-187 1389.25,-191 1368.25,-191 1365.25,-187 1249.75,-187 1249.75,-151 1392.25,-151 1392.25,-187"/>
<text text-anchor="middle" x="1321" y="-164.8" font-family="Times,serif" font-size="14.00">AuthenticationModule</text>
</g>
<!-- AppBoxedForgotPasswordComponent&#45;&gt;AuthenticationModule -->
<g id="edge1" class="edge">
<title>AppBoxedForgotPasswordComponent&#45;&gt;AuthenticationModule</title>
<path fill="none" stroke="black" d="M2636,-122.09C2636,-145.13 2636,-182 2636,-182 2636,-182 1402.63,-182 1402.63,-182"/>
<polygon fill="black" stroke="black" points="1402.63,-178.5 1392.63,-182 1402.63,-185.5 1402.63,-178.5"/>
</g>
<!-- AppBoxedLoginComponent -->
<g id="node2" class="node">
<title>AppBoxedLoginComponent</title>
<polygon fill="#ffffb3" stroke="black" points="2501.93,-122 2326.07,-122 2326.07,-86 2501.93,-86 2501.93,-122"/>
<text text-anchor="middle" x="2414" y="-99.8" font-family="Times,serif" font-size="14.00">AppBoxedLoginComponent</text>
</g>
<!-- AppBoxedLoginComponent&#45;&gt;AuthenticationModule -->
<g id="edge2" class="edge">
<title>AppBoxedLoginComponent&#45;&gt;AuthenticationModule</title>
<path fill="none" stroke="black" d="M2414,-122.04C2414,-143.66 2414,-177 2414,-177 2414,-177 1402.29,-177 1402.29,-177"/>
<polygon fill="black" stroke="black" points="1402.29,-173.5 1392.29,-177 1402.29,-180.5 1402.29,-173.5"/>
</g>
<!-- AppBoxedRegisterComponent -->
<g id="node3" class="node">
<title>AppBoxedRegisterComponent</title>
<polygon fill="#ffffb3" stroke="black" points="2308.14,-122 2119.86,-122 2119.86,-86 2308.14,-86 2308.14,-122"/>
<text text-anchor="middle" x="2214" y="-99.8" font-family="Times,serif" font-size="14.00">AppBoxedRegisterComponent</text>
</g>
<!-- AppBoxedRegisterComponent&#45;&gt;AuthenticationModule -->
<g id="edge3" class="edge">
<title>AppBoxedRegisterComponent&#45;&gt;AuthenticationModule</title>
<path fill="none" stroke="black" d="M2214,-122.22C2214,-142.37 2214,-172 2214,-172 2214,-172 1402.57,-172 1402.57,-172"/>
<polygon fill="black" stroke="black" points="1402.57,-168.5 1392.57,-172 1402.57,-175.5 1402.57,-168.5"/>
</g>
<!-- AppBoxedTwoStepsComponent -->
<g id="node4" class="node">
<title>AppBoxedTwoStepsComponent</title>
<polygon fill="#ffffb3" stroke="black" points="2101.98,-122 1904.02,-122 1904.02,-86 2101.98,-86 2101.98,-122"/>
<text text-anchor="middle" x="2003" y="-99.8" font-family="Times,serif" font-size="14.00">AppBoxedTwoStepsComponent</text>
</g>
<!-- AppBoxedTwoStepsComponent&#45;&gt;AuthenticationModule -->
<g id="edge4" class="edge">
<title>AppBoxedTwoStepsComponent&#45;&gt;AuthenticationModule</title>
<path fill="none" stroke="black" d="M2003,-122.22C2003,-140.83 2003,-167 2003,-167 2003,-167 1402.38,-167 1402.38,-167"/>
<polygon fill="black" stroke="black" points="1402.38,-163.5 1392.38,-167 1402.38,-170.5 1402.38,-163.5"/>
</g>
<!-- AppErrorComponent -->
<g id="node5" class="node">
<title>AppErrorComponent</title>
<polygon fill="#ffffb3" stroke="black" points="1886.47,-122 1751.53,-122 1751.53,-86 1886.47,-86 1886.47,-122"/>
<text text-anchor="middle" x="1819" y="-99.8" font-family="Times,serif" font-size="14.00">AppErrorComponent</text>
</g>
<!-- AppErrorComponent&#45;&gt;AuthenticationModule -->
<g id="edge5" class="edge">
<title>AppErrorComponent&#45;&gt;AuthenticationModule</title>
<path fill="none" stroke="black" d="M1819,-122.03C1819,-139.06 1819,-162 1819,-162 1819,-162 1402.35,-162 1402.35,-162"/>
<polygon fill="black" stroke="black" points="1402.35,-158.5 1392.35,-162 1402.35,-165.5 1402.35,-158.5"/>
</g>
<!-- AppMaintenanceComponent -->
<g id="node6" class="node">
<title>AppMaintenanceComponent</title>
<polygon fill="#ffffb3" stroke="black" points="1733.74,-122 1556.26,-122 1556.26,-86 1733.74,-86 1733.74,-122"/>
<text text-anchor="middle" x="1645" y="-99.8" font-family="Times,serif" font-size="14.00">AppMaintenanceComponent</text>
</g>
<!-- AppMaintenanceComponent&#45;&gt;AuthenticationModule -->
<g id="edge6" class="edge">
<title>AppMaintenanceComponent&#45;&gt;AuthenticationModule</title>
<path fill="none" stroke="black" d="M1645,-122.24C1645,-137.57 1645,-157 1645,-157 1645,-157 1402.5,-157 1402.5,-157"/>
<polygon fill="black" stroke="black" points="1402.5,-153.5 1392.5,-157 1402.5,-160.5 1402.5,-153.5"/>
</g>
<!-- AppSideForgotPasswordComponent -->
<g id="node7" class="node">
<title>AppSideForgotPasswordComponent</title>
<polygon fill="#ffffb3" stroke="black" points="1537.81,-122 1316.19,-122 1316.19,-86 1537.81,-86 1537.81,-122"/>
<text text-anchor="middle" x="1427" y="-99.8" font-family="Times,serif" font-size="14.00">AppSideForgotPasswordComponent</text>
</g>
<!-- AppSideForgotPasswordComponent&#45;&gt;AuthenticationModule -->
<g id="edge7" class="edge">
<title>AppSideForgotPasswordComponent&#45;&gt;AuthenticationModule</title>
<path fill="none" stroke="black" d="M1354.36,-122.11C1354.36,-122.11 1354.36,-140.99 1354.36,-140.99"/>
<polygon fill="black" stroke="black" points="1350.86,-140.99 1354.36,-150.99 1357.86,-140.99 1350.86,-140.99"/>
</g>
<!-- AppSideLoginComponent -->
<g id="node8" class="node">
<title>AppSideLoginComponent</title>
<polygon fill="#ffffb3" stroke="black" points="1297.77,-122 1134.23,-122 1134.23,-86 1297.77,-86 1297.77,-122"/>
<text text-anchor="middle" x="1216" y="-99.8" font-family="Times,serif" font-size="14.00">AppSideLoginComponent</text>
</g>
<!-- AppSideLoginComponent&#45;&gt;AuthenticationModule -->
<g id="edge8" class="edge">
<title>AppSideLoginComponent&#45;&gt;AuthenticationModule</title>
<path fill="none" stroke="black" d="M1273.75,-122.11C1273.75,-122.11 1273.75,-140.99 1273.75,-140.99"/>
<polygon fill="black" stroke="black" points="1270.25,-140.99 1273.75,-150.99 1277.25,-140.99 1270.25,-140.99"/>
</g>
<!-- AppSideRegisterComponent -->
<g id="node9" class="node">
<title>AppSideRegisterComponent</title>
<polygon fill="#ffffb3" stroke="black" points="1116.48,-122 939.52,-122 939.52,-86 1116.48,-86 1116.48,-122"/>
<text text-anchor="middle" x="1028" y="-99.8" font-family="Times,serif" font-size="14.00">AppSideRegisterComponent</text>
</g>
<!-- AppSideRegisterComponent&#45;&gt;AuthenticationModule -->
<g id="edge9" class="edge">
<title>AppSideRegisterComponent&#45;&gt;AuthenticationModule</title>
<path fill="none" stroke="black" d="M1028,-122.24C1028,-137.57 1028,-157 1028,-157 1028,-157 1239.7,-157 1239.7,-157"/>
<polygon fill="black" stroke="black" points="1239.7,-160.5 1249.7,-157 1239.7,-153.5 1239.7,-160.5"/>
</g>
<!-- AppSideTwoStepsComponent -->
<g id="node10" class="node">
<title>AppSideTwoStepsComponent</title>
<polygon fill="#ffffb3" stroke="black" points="921.32,-122 734.68,-122 734.68,-86 921.32,-86 921.32,-122"/>
<text text-anchor="middle" x="828" y="-99.8" font-family="Times,serif" font-size="14.00">AppSideTwoStepsComponent</text>
</g>
<!-- AppSideTwoStepsComponent&#45;&gt;AuthenticationModule -->
<g id="edge10" class="edge">
<title>AppSideTwoStepsComponent&#45;&gt;AuthenticationModule</title>
<path fill="none" stroke="black" d="M828,-122.03C828,-139.06 828,-162 828,-162 828,-162 1239.58,-162 1239.58,-162"/>
<polygon fill="black" stroke="black" points="1239.58,-165.5 1249.58,-162 1239.58,-158.5 1239.58,-165.5"/>
</g>
<!-- DeactivatedCollectionPointDialogComponent -->
<g id="node11" class="node">
<title>DeactivatedCollectionPointDialogComponent</title>
<polygon fill="#ffffb3" stroke="black" points="717.18,-122 442.82,-122 442.82,-86 717.18,-86 717.18,-122"/>
<text text-anchor="middle" x="580" y="-99.8" font-family="Times,serif" font-size="14.00">DeactivatedCollectionPointDialogComponent</text>
</g>
<!-- DeactivatedCollectionPointDialogComponent&#45;&gt;AuthenticationModule -->
<g id="edge11" class="edge">
<title>DeactivatedCollectionPointDialogComponent&#45;&gt;AuthenticationModule</title>
<path fill="none" stroke="black" d="M580,-122.22C580,-140.83 580,-167 580,-167 580,-167 1239.61,-167 1239.61,-167"/>
<polygon fill="black" stroke="black" points="1239.61,-170.5 1249.61,-167 1239.61,-163.5 1239.61,-170.5"/>
</g>
<!-- HowItWorksComponent -->
<g id="node12" class="node">
<title>HowItWorksComponent</title>
<polygon fill="#ffffb3" stroke="black" points="425.42,-122 270.58,-122 270.58,-86 425.42,-86 425.42,-122"/>
<text text-anchor="middle" x="348" y="-99.8" font-family="Times,serif" font-size="14.00">HowItWorksComponent</text>
</g>
<!-- HowItWorksComponent&#45;&gt;AuthenticationModule -->
<g id="edge12" class="edge">
<title>HowItWorksComponent&#45;&gt;AuthenticationModule</title>
<path fill="none" stroke="black" d="M348,-122.22C348,-142.37 348,-172 348,-172 348,-172 1239.45,-172 1239.45,-172"/>
<polygon fill="black" stroke="black" points="1239.45,-175.5 1249.45,-172 1239.45,-168.5 1239.45,-175.5"/>
</g>
<!-- MaterialModule -->
<g id="node14" class="node">
<title>MaterialModule</title>
<polygon fill="#8dd3c7" stroke="black" points="247.47,-122 244.47,-126 223.47,-126 220.47,-122 140.53,-122 140.53,-86 247.47,-86 247.47,-122"/>
<text text-anchor="middle" x="194" y="-99.8" font-family="Times,serif" font-size="14.00">MaterialModule</text>
</g>
<!-- MaterialModule&#45;&gt;AuthenticationModule -->
<g id="edge13" class="edge">
<title>MaterialModule&#45;&gt;AuthenticationModule</title>
<path fill="none" stroke="black" d="M194,-122.04C194,-143.66 194,-177 194,-177 194,-177 1239.65,-177 1239.65,-177"/>
<polygon fill="black" stroke="black" points="1239.65,-180.5 1249.65,-177 1239.65,-173.5 1239.65,-180.5"/>
</g>
<!-- SharedModule -->
<g id="node15" class="node">
<title>SharedModule</title>
<polygon fill="#8dd3c7" stroke="black" points="122.42,-122 119.42,-126 98.42,-126 95.42,-122 23.58,-122 23.58,-86 122.42,-86 122.42,-122"/>
<text text-anchor="middle" x="73" y="-99.8" font-family="Times,serif" font-size="14.00">SharedModule</text>
</g>
<!-- SharedModule&#45;&gt;AuthenticationModule -->
<g id="edge14" class="edge">
<title>SharedModule&#45;&gt;AuthenticationModule</title>
<path fill="none" stroke="black" d="M73,-122.09C73,-145.13 73,-182 73,-182 73,-182 1239.42,-182 1239.42,-182"/>
<polygon fill="black" stroke="black" points="1239.42,-185.5 1249.42,-182 1239.42,-178.5 1239.42,-185.5"/>
</g>
</g>
</svg>
