<svg version="1.1" id="Layer_1" xmlns="http://www.w3.org/2000/svg" xmlns:xlink="http://www.w3.org/1999/xlink" x="0px" y="0px"
	 width="100%" viewBox="0 0 832 560" enable-background="new 0 0 832 560" xml:space="preserve">
<path fill="#000000" opacity="1.000000" stroke="none" 
	d="
M664.887695,309.911194 
	C664.888123,348.715240 664.828430,387.034149 664.920715,425.352661 
	C664.951904,438.313812 661.734802,449.716400 650.955383,457.978119 
	C643.889221,463.393829 635.760925,465.224274 627.049255,465.221863 
	C546.063904,465.199493 465.078583,465.180054 384.093262,465.179291 
	C327.436890,465.178772 270.780487,465.228912 214.124115,465.210419 
	C200.280640,465.205902 189.237030,459.813843 181.920380,447.741302 
	C177.702454,440.781708 176.999344,432.989166 176.998825,425.100891 
	C176.994034,352.281860 177.017181,279.462799 177.026779,206.643753 
	C177.029465,186.314484 176.936539,165.984848 177.030243,145.656036 
	C177.114700,127.332657 185.366043,114.695305 200.433655,109.265030 
	C205.706223,107.364845 211.207184,107.079964 216.677399,107.078217 
	C352.819366,107.034843 488.961334,107.066826 625.103333,107.051193 
	C637.438354,107.049782 648.502563,109.877090 656.808228,119.847168 
	C662.913574,127.175888 664.826538,135.829773 664.834534,145.000153 
	C664.861633,176.151718 664.698364,207.303421 664.693787,238.455063 
	C664.690369,262.112000 664.817810,285.768951 664.887695,309.911194 
M194.346054,406.499939 
	C194.346329,413.331421 194.665909,420.181213 194.274582,426.990204 
	C193.632614,438.160217 201.898727,447.885406 214.934814,447.857056 
	C352.243683,447.558319 489.553619,447.567566 626.862549,447.847046 
	C640.029968,447.873840 647.763550,438.871033 647.741272,426.688965 
	C647.570007,333.039093 647.652161,239.388733 647.641724,145.738525 
	C647.640137,131.299728 640.618286,124.362717 626.097656,124.363174 
	C489.787994,124.367477 353.478333,124.372978 217.168686,124.379280 
	C200.852386,124.380035 194.344437,130.843887 194.344452,147.044952 
	C194.344574,233.196609 194.345825,319.348267 194.346054,406.499939 
z"/>
<path fill="#000000" opacity="1.000000" stroke="none" 
	d="
M507.289978,399.077026 
	C498.581360,397.983582 490.244720,397.424225 482.198334,395.234863 
	C459.200348,388.977264 459.606018,383.868378 461.294830,363.300842 
	C462.400452,349.835297 470.261963,340.375519 482.533386,334.583038 
	C490.063385,331.028687 497.479492,327.230988 504.911957,323.473694 
	C506.501648,322.670074 508.409851,322.207062 509.260895,320.328857 
	C509.352570,318.426727 507.801575,317.844666 506.580902,317.073059 
	C496.359131,310.611786 489.307983,301.514374 484.797791,290.441132 
	C483.128296,286.342194 480.873993,283.069977 477.427734,280.133759 
	C468.738800,272.730774 468.280701,262.530243 469.156952,252.129745 
	C469.677429,245.952011 471.896698,240.455902 476.494690,236.171051 
	C478.408325,234.387711 478.566803,232.115387 479.036591,229.855148 
	C480.531036,222.664230 482.460388,215.571167 485.874573,209.056473 
	C488.499115,204.048538 489.154785,199.098495 487.688751,193.665512 
	C486.913971,190.794342 486.703186,187.772308 486.215424,184.822067 
	C485.365601,179.681503 487.393280,175.286072 491.718323,173.082535 
	C496.416290,170.688950 500.721863,171.875259 503.955353,175.511856 
	C511.399933,183.884491 520.790222,188.280533 531.690796,188.262817 
	C539.667114,188.249847 547.625671,187.700455 555.585693,188.674622 
	C570.317627,190.477554 583.884460,194.800537 594.165100,206.323517 
	C597.403442,209.953186 600.214966,213.869736 601.961487,218.443542 
	C605.121887,226.720169 608.132141,234.848938 613.009827,242.569229 
	C620.891907,255.044983 616.550659,272.975861 605.228149,282.249451 
	C603.904175,283.333862 602.869446,284.473694 602.262756,286.130524 
	C597.430359,299.327698 589.784180,310.354828 577.571533,317.816559 
	C576.727417,318.332336 575.850464,318.881836 575.722961,320.217773 
	C576.083618,322.274384 578.130981,322.617035 579.669067,323.412994 
	C587.804993,327.623169 595.992920,331.732574 604.144714,335.912170 
	C617.616882,342.819580 624.037659,354.035217 624.278320,369.002014 
	C624.283630,369.335175 624.277344,369.668488 624.277771,370.001740 
	C624.299072,386.594086 621.860352,389.805908 605.646851,394.490051 
	C595.679749,397.369629 585.399841,398.441467 575.132996,399.207214 
	C552.684937,400.881470 530.212830,400.575256 507.289978,399.077026 
M563.153015,305.649506 
	C576.414734,299.829773 583.673401,289.088470 587.364136,275.624146 
	C588.280151,272.282318 589.613281,270.212189 593.038208,268.892212 
	C600.023804,266.199951 601.744873,251.694839 595.320374,247.791382 
	C591.041016,245.191315 590.194824,241.808105 589.646667,237.586304 
	C587.581421,221.679932 577.527222,210.872971 561.983032,207.269699 
	C553.282104,205.252777 544.497131,205.066345 535.668701,205.384674 
	C526.896057,205.701035 518.401794,204.595749 510.279083,201.130600 
	C509.226257,200.681473 508.150208,200.063965 506.698181,201.080139 
	C505.634583,205.843399 504.133911,210.736908 501.885712,215.405670 
	C498.173859,223.114059 495.833801,231.236206 495.238342,239.812943 
	C495.017395,242.995804 493.816528,245.354919 490.782837,247.013901 
	C484.597382,250.396484 486.457825,256.523315 486.449341,261.817383 
	C486.442932,265.808380 489.070923,268.224335 492.775330,269.215973 
	C495.841522,270.036804 496.740112,272.148682 497.497681,274.936127 
	C500.893555,287.431152 506.855957,298.537659 519.121948,304.007263 
	C525.843445,307.004517 528.277649,310.846191 527.180298,317.655670 
	C527.049438,318.468262 527.148193,319.319305 527.154602,320.152435 
	C527.217224,328.308838 523.760315,334.019043 516.113525,337.453186 
	C507.610962,341.271667 499.461700,345.878967 490.948273,349.670532 
	C481.898193,353.701080 477.984283,360.295410 478.178772,370.147858 
	C478.273010,374.922241 479.928528,376.858185 484.416809,377.950592 
	C497.439911,381.120239 510.714050,382.139160 523.988953,382.534332 
	C541.461670,383.054474 558.973877,383.208374 576.419128,381.594635 
	C585.022461,380.798767 593.598450,379.713501 602.019531,377.612823 
	C605.473999,376.751038 606.666199,374.948547 606.866882,371.306885 
	C607.410339,361.443451 603.380493,354.774902 594.524719,350.526337 
	C585.815796,346.348267 577.402466,341.551239 568.671509,337.423370 
	C561.496521,334.031128 558.096069,328.628723 558.121460,320.845856 
	C558.130676,318.013031 558.187012,315.178101 558.101074,312.347809 
	C558.002991,309.116150 559.249695,306.890411 563.153015,305.649506 
z"/>
<path fill="#000000" opacity="1.000000" stroke="none" 
	d="
M273.000061,309.734680 
	C315.965729,309.747070 358.431427,309.754883 400.897095,309.787170 
	C402.718750,309.788574 404.587952,309.797272 406.352417,310.181763 
	C410.821777,311.155670 413.253723,314.008545 413.279114,318.652863 
	C413.302826,322.988922 410.207184,326.468353 405.658691,327.139465 
	C403.860687,327.404694 402.003510,327.309082 400.173279,327.309387 
	C343.718750,327.318970 287.264252,327.322540 230.809738,327.319702 
	C222.143204,327.319275 217.681458,324.268097 217.761261,318.447205 
	C217.840866,312.641449 222.226868,309.758850 231.033554,309.751190 
	C244.855713,309.739136 258.677856,309.739532 273.000061,309.734680 
z"/>
<path fill="#000000" opacity="1.000000" stroke="none" 
	d="
M371.968018,261.050293 
	C382.601501,261.312042 392.731018,262.009308 402.907410,261.329041 
	C409.166931,260.910675 413.157959,264.447205 413.295685,269.583496 
	C413.442627,275.062775 409.682617,278.359924 402.980408,278.367371 
	C367.823120,278.406433 332.665710,278.396545 297.508362,278.402985 
	C274.354919,278.407227 251.201355,278.375275 228.048111,278.446503 
	C223.899811,278.459259 220.469482,277.554260 218.579987,273.455627 
	C216.090393,268.055237 219.324646,261.768829 225.218552,261.783997 
	C237.699951,261.816101 250.149689,260.240417 262.659576,261.412537 
	C270.623596,262.158691 278.664673,260.797424 286.610291,261.149567 
	C305.917999,262.005219 325.216888,260.625824 344.521973,261.507965 
	C353.483246,261.917480 362.494385,261.236298 371.968018,261.050293 
z"/>
<path fill="#000000" opacity="1.000000" stroke="none" 
	d="
M225.687820,229.984344 
	C219.500153,227.808441 216.954193,224.313293 217.869766,219.764847 
	C218.825714,215.015869 222.190842,212.689774 228.359497,212.684052 
	C253.983063,212.660309 279.606659,212.659088 305.230255,212.675613 
	C312.163452,212.680084 316.008453,215.583405 316.207855,220.837280 
	C316.410583,226.178513 312.180176,230.096252 305.478668,230.114365 
	C279.024750,230.185837 252.570404,230.091782 225.687820,229.984344 
z"/>
<path fill="#000000" opacity="1.000000" stroke="none" 
	d="
M288.583496,365.809326 
	C280.372620,369.281494 272.188232,368.434845 264.202606,367.018188 
	C259.721558,366.223267 258.066223,362.242645 258.590240,357.710815 
	C259.088196,353.404388 261.904175,351.028992 265.891602,350.795258 
	C272.033722,350.435181 278.239471,350.367432 284.370544,350.820831 
	C291.553772,351.352081 293.773712,359.015045 288.583496,365.809326 
z"/>
<path fill="#000000" opacity="1.000000" stroke="none" 
	d="
M364.002655,350.646057 
	C367.476959,350.671600 370.478729,350.507965 373.443268,350.768097 
	C377.596497,351.132538 381.046539,354.670685 380.987152,358.710541 
	C380.925812,362.886047 378.970459,366.294800 374.664520,367.157654 
	C367.785950,368.536163 360.774841,368.355530 353.880157,367.197052 
	C349.773438,366.507019 347.239594,362.505829 347.740326,358.240356 
	C348.246094,353.932312 350.708527,351.225983 355.060822,350.749146 
	C357.848694,350.443726 360.693939,350.662262 364.002655,350.646057 
z"/>
<path fill="#000000" opacity="1.000000" stroke="none" 
	d="
M240.899811,364.851654 
	C234.699158,369.247772 228.255875,368.706696 222.091339,366.346283 
	C218.597473,365.008514 217.165298,361.364227 217.938553,357.551392 
	C218.696793,353.812408 221.090546,351.167389 225.012680,350.806641 
	C228.643661,350.472687 232.375671,350.377960 235.982422,350.826874 
	C242.520966,351.640686 244.800934,357.995789 240.899811,364.851654 
z"/>
<path fill="#000000" opacity="1.000000" stroke="none" 
	d="
M331.300476,362.877777 
	C326.827301,368.399689 315.479462,369.826233 310.334137,365.755676 
	C307.495728,363.510223 306.355835,360.560547 307.353149,356.923737 
	C308.339996,353.324799 310.684784,351.163391 314.329071,350.777588 
	C317.120026,350.482147 319.964355,350.620544 322.783051,350.670502 
	C330.211884,350.802155 333.399536,355.178711 331.300476,362.877777 
z"/>
<path fill="#000000" opacity="1.000000" stroke="none" 
	d="
M402.469482,350.871246 
	C406.183899,350.410400 409.179535,351.025574 411.392639,353.739258 
	C414.297485,357.301178 413.879333,362.335022 410.491913,365.402191 
	C407.352020,368.245331 401.536194,368.127197 398.687958,365.162476 
	C395.441193,361.782990 395.400818,356.230225 398.728333,353.051483 
	C399.659515,352.161957 400.944672,351.642975 402.469482,350.871246 
z"/>
</svg>