<?xml version="1.0" encoding="UTF-8" standalone="no"?>
<!DOCTYPE svg PUBLIC "-//W3C//DTD SVG 1.1//EN"
 "http://www.w3.org/Graphics/SVG/1.1/DTD/svg11.dtd">
<!-- Generated by graphviz version 2.47.0 (20210316.0004)
 -->
<!-- Title: dependencies Pages: 1 -->
<svg width="1602pt" height="284pt"
 viewBox="0.00 0.00 1602.00 284.00" xmlns="http://www.w3.org/2000/svg" xmlns:xlink="http://www.w3.org/1999/xlink">
<g id="graph0" class="graph" transform="scale(1 1) rotate(0) translate(4 280)">
<title>dependencies</title>
<polygon fill="white" stroke="transparent" points="-4,4 -4,-280 1598,-280 1598,4 -4,4"/>
<text text-anchor="start" x="776.01" y="-42.4" font-family="Times-12" font-weight="bold" font-size="14.00">Legend</text>
<polygon fill="#ffffb3" stroke="transparent" points="563,-10 563,-30 583,-30 583,-10 563,-10"/>
<text text-anchor="start" x="586.63" y="-15.4" font-family="Times-12" font-size="14.00"> &#160;Declarations</text>
<polygon fill="#8dd3c7" stroke="transparent" points="676,-10 676,-30 696,-30 696,-10 676,-10"/>
<text text-anchor="start" x="699.73" y="-15.4" font-family="Times-12" font-size="14.00"> &#160;Module</text>
<polygon fill="#80b1d3" stroke="transparent" points="762,-10 762,-30 782,-30 782,-10 762,-10"/>
<text text-anchor="start" x="785.78" y="-15.4" font-family="Times-12" font-size="14.00"> &#160;Bootstrap</text>
<polygon fill="#fdb462" stroke="transparent" points="859,-10 859,-30 879,-30 879,-10 859,-10"/>
<text text-anchor="start" x="882.67" y="-15.4" font-family="Times-12" font-size="14.00"> &#160;Providers</text>
<polygon fill="#fb8072" stroke="transparent" points="955,-10 955,-30 975,-30 975,-10 955,-10"/>
<text text-anchor="start" x="978.73" y="-15.4" font-family="Times-12" font-size="14.00"> &#160;Exports</text>
<g id="clust1" class="cluster">
<title>cluster_DashboardWidgetsModule</title>
<polygon fill="none" stroke="black" stroke-dasharray="1,5" points="8,-70 8,-268 1586,-268 1586,-70 8,-70"/>
</g>
<g id="clust10" class="cluster">
<title>cluster_DashboardWidgetsModule_exports</title>
<polygon fill="none" stroke="black" points="16,-208 16,-260 1578,-260 1578,-208 16,-208"/>
</g>
<g id="clust2" class="cluster">
<title>cluster_DashboardWidgetsModule_declarations</title>
<polygon fill="none" stroke="black" points="28,-78 28,-130 1570,-130 1570,-78 28,-78"/>
</g>
<!-- AppAccountSettingsRedirectComponent -->
<g id="node1" class="node">
<title>AppAccountSettingsRedirectComponent</title>
<polygon fill="#ffffb3" stroke="black" points="1561.9,-122 1316.1,-122 1316.1,-86 1561.9,-86 1561.9,-122"/>
<text text-anchor="middle" x="1439" y="-99.8" font-family="Times,serif" font-size="14.00">AppAccountSettingsRedirectComponent</text>
</g>
<!-- DashboardWidgetsModule -->
<g id="node7" class="node">
<title>DashboardWidgetsModule</title>
<polygon fill="#8dd3c7" stroke="black" points="681.35,-187 678.35,-191 657.35,-191 654.35,-187 514.65,-187 514.65,-151 681.35,-151 681.35,-187"/>
<text text-anchor="middle" x="598" y="-164.8" font-family="Times,serif" font-size="14.00">DashboardWidgetsModule</text>
</g>
<!-- AppAccountSettingsRedirectComponent&#45;&gt;DashboardWidgetsModule -->
<g id="edge1" class="edge">
<title>AppAccountSettingsRedirectComponent&#45;&gt;DashboardWidgetsModule</title>
<path fill="none" stroke="black" d="M1481.65,-122.22C1481.65,-140.83 1481.65,-167 1481.65,-167 1481.65,-167 691.53,-167 691.53,-167"/>
<polygon fill="black" stroke="black" points="691.53,-163.5 681.53,-167 691.53,-170.5 691.53,-163.5"/>
</g>
<!-- AppCompanyManagementRedirectComponent -->
<g id="node2" class="node">
<title>AppCompanyManagementRedirectComponent</title>
<polygon fill="#ffffb3" stroke="black" points="1298.39,-122 1017.61,-122 1017.61,-86 1298.39,-86 1298.39,-122"/>
<text text-anchor="middle" x="1158" y="-99.8" font-family="Times,serif" font-size="14.00">AppCompanyManagementRedirectComponent</text>
</g>
<!-- AppCompanyManagementRedirectComponent&#45;&gt;DashboardWidgetsModule -->
<g id="edge2" class="edge">
<title>AppCompanyManagementRedirectComponent&#45;&gt;DashboardWidgetsModule</title>
<path fill="none" stroke="black" d="M1205.48,-122.03C1205.48,-139.06 1205.48,-162 1205.48,-162 1205.48,-162 691.51,-162 691.51,-162"/>
<polygon fill="black" stroke="black" points="691.51,-158.5 681.51,-162 691.51,-165.5 691.51,-158.5"/>
</g>
<!-- AppFormManagementRedirectComponent -->
<g id="node3" class="node">
<title>AppFormManagementRedirectComponent</title>
<polygon fill="#ffffb3" stroke="black" points="1000.28,-122 743.72,-122 743.72,-86 1000.28,-86 1000.28,-122"/>
<text text-anchor="middle" x="872" y="-99.8" font-family="Times,serif" font-size="14.00">AppFormManagementRedirectComponent</text>
</g>
<!-- AppFormManagementRedirectComponent&#45;&gt;DashboardWidgetsModule -->
<g id="edge3" class="edge">
<title>AppFormManagementRedirectComponent&#45;&gt;DashboardWidgetsModule</title>
<path fill="none" stroke="black" d="M914.71,-122.24C914.71,-137.57 914.71,-157 914.71,-157 914.71,-157 691.63,-157 691.63,-157"/>
<polygon fill="black" stroke="black" points="691.63,-153.5 681.63,-157 691.63,-160.5 691.63,-153.5"/>
</g>
<!-- AppQRCodeGenerationRedirectComponent -->
<g id="node4" class="node">
<title>AppQRCodeGenerationRedirectComponent</title>
<polygon fill="#ffffb3" stroke="black" points="726.05,-122 461.95,-122 461.95,-86 726.05,-86 726.05,-122"/>
<text text-anchor="middle" x="594" y="-99.8" font-family="Times,serif" font-size="14.00">AppQRCodeGenerationRedirectComponent</text>
</g>
<!-- AppQRCodeGenerationRedirectComponent&#45;&gt;DashboardWidgetsModule -->
<g id="edge4" class="edge">
<title>AppQRCodeGenerationRedirectComponent&#45;&gt;DashboardWidgetsModule</title>
<path fill="none" stroke="black" d="M598,-122.11C598,-122.11 598,-140.99 598,-140.99"/>
<polygon fill="black" stroke="black" points="594.5,-140.99 598,-150.99 601.5,-140.99 594.5,-140.99"/>
</g>
<!-- AppScanHistoryRedirectWidget -->
<g id="node5" class="node">
<title>AppScanHistoryRedirectWidget</title>
<polygon fill="#ffffb3" stroke="black" points="443.94,-122 246.06,-122 246.06,-86 443.94,-86 443.94,-122"/>
<text text-anchor="middle" x="345" y="-99.8" font-family="Times,serif" font-size="14.00">AppScanHistoryRedirectWidget</text>
</g>
<!-- AppScanHistoryRedirectWidget&#45;&gt;DashboardWidgetsModule -->
<g id="edge5" class="edge">
<title>AppScanHistoryRedirectWidget&#45;&gt;DashboardWidgetsModule</title>
<path fill="none" stroke="black" d="M374.49,-122.01C374.49,-138.05 374.49,-159 374.49,-159 374.49,-159 504.46,-159 504.46,-159"/>
<polygon fill="black" stroke="black" points="504.46,-162.5 514.46,-159 504.46,-155.5 504.46,-162.5"/>
</g>
<!-- AppScanIdRedirectComponent -->
<g id="node6" class="node">
<title>AppScanIdRedirectComponent</title>
<polygon fill="#ffffb3" stroke="black" points="227.73,-122 36.27,-122 36.27,-86 227.73,-86 227.73,-122"/>
<text text-anchor="middle" x="132" y="-99.8" font-family="Times,serif" font-size="14.00">AppScanIdRedirectComponent</text>
</g>
<!-- AppScanIdRedirectComponent&#45;&gt;DashboardWidgetsModule -->
<g id="edge6" class="edge">
<title>AppScanIdRedirectComponent&#45;&gt;DashboardWidgetsModule</title>
<path fill="none" stroke="black" d="M223.74,-122.27C223.74,-140.56 223.74,-166 223.74,-166 223.74,-166 504.47,-166 504.47,-166"/>
<polygon fill="black" stroke="black" points="504.48,-169.5 514.47,-166 504.47,-162.5 504.48,-169.5"/>
</g>
<!-- AppAccountSettingsRedirectComponent  -->
<g id="node8" class="node">
<title>AppAccountSettingsRedirectComponent </title>
<polygon fill="#fb8072" stroke="black" points="1570.4,-252 1321.6,-252 1321.6,-216 1570.4,-216 1570.4,-252"/>
<text text-anchor="middle" x="1446" y="-229.8" font-family="Times,serif" font-size="14.00">AppAccountSettingsRedirectComponent </text>
</g>
<!-- DashboardWidgetsModule&#45;&gt;AppAccountSettingsRedirectComponent  -->
<g id="edge7" class="edge">
<title>DashboardWidgetsModule&#45;&gt;AppAccountSettingsRedirectComponent </title>
<path fill="none" stroke="black" stroke-dasharray="5,2" d="M681.35,-172C886.92,-172 1401.6,-172 1401.6,-172 1401.6,-172 1401.6,-205.73 1401.6,-205.73"/>
<polygon fill="black" stroke="black" points="1398.1,-205.73 1401.6,-215.73 1405.1,-205.73 1398.1,-205.73"/>
</g>
<!-- AppCompanyManagementRedirectComponent  -->
<g id="node9" class="node">
<title>AppCompanyManagementRedirectComponent </title>
<polygon fill="#fb8072" stroke="black" points="1303.89,-252 1020.11,-252 1020.11,-216 1303.89,-216 1303.89,-252"/>
<text text-anchor="middle" x="1162" y="-229.8" font-family="Times,serif" font-size="14.00">AppCompanyManagementRedirectComponent </text>
</g>
<!-- DashboardWidgetsModule&#45;&gt;AppCompanyManagementRedirectComponent  -->
<g id="edge8" class="edge">
<title>DashboardWidgetsModule&#45;&gt;AppCompanyManagementRedirectComponent </title>
<path fill="none" stroke="black" stroke-dasharray="5,2" d="M681.57,-177C827.34,-177 1112.77,-177 1112.77,-177 1112.77,-177 1112.77,-205.96 1112.77,-205.96"/>
<polygon fill="black" stroke="black" points="1109.27,-205.96 1112.77,-215.96 1116.27,-205.96 1109.27,-205.96"/>
</g>
<!-- AppFormManagementRedirectComponent  -->
<g id="node10" class="node">
<title>AppFormManagementRedirectComponent </title>
<polygon fill="#fb8072" stroke="black" points="1001.78,-252 742.22,-252 742.22,-216 1001.78,-216 1001.78,-252"/>
<text text-anchor="middle" x="872" y="-229.8" font-family="Times,serif" font-size="14.00">AppFormManagementRedirectComponent </text>
</g>
<!-- DashboardWidgetsModule&#45;&gt;AppFormManagementRedirectComponent  -->
<g id="edge9" class="edge">
<title>DashboardWidgetsModule&#45;&gt;AppFormManagementRedirectComponent </title>
<path fill="none" stroke="black" stroke-dasharray="5,2" d="M681.5,-182C747.75,-182 829.29,-182 829.29,-182 829.29,-182 829.29,-205.81 829.29,-205.81"/>
<polygon fill="black" stroke="black" points="825.79,-205.81 829.29,-215.81 832.79,-205.81 825.79,-205.81"/>
</g>
<!-- AppQRCodeGenerationRedirectComponent  -->
<g id="node11" class="node">
<title>AppQRCodeGenerationRedirectComponent </title>
<polygon fill="#fb8072" stroke="black" points="723.55,-252 456.45,-252 456.45,-216 723.55,-216 723.55,-252"/>
<text text-anchor="middle" x="590" y="-229.8" font-family="Times,serif" font-size="14.00">AppQRCodeGenerationRedirectComponent </text>
</g>
<!-- DashboardWidgetsModule&#45;&gt;AppQRCodeGenerationRedirectComponent  -->
<g id="edge10" class="edge">
<title>DashboardWidgetsModule&#45;&gt;AppQRCodeGenerationRedirectComponent </title>
<path fill="none" stroke="black" stroke-dasharray="5,2" d="M598,-187.11C598,-187.11 598,-205.99 598,-205.99"/>
<polygon fill="black" stroke="black" points="594.5,-205.99 598,-215.99 601.5,-205.99 594.5,-205.99"/>
</g>
<!-- AppScanHistoryRedirectWidget  -->
<g id="node12" class="node">
<title>AppScanHistoryRedirectWidget </title>
<polygon fill="#fb8072" stroke="black" points="438.94,-252 237.06,-252 237.06,-216 438.94,-216 438.94,-252"/>
<text text-anchor="middle" x="338" y="-229.8" font-family="Times,serif" font-size="14.00">AppScanHistoryRedirectWidget </text>
</g>
<!-- DashboardWidgetsModule&#45;&gt;AppScanHistoryRedirectWidget  -->
<g id="edge11" class="edge">
<title>DashboardWidgetsModule&#45;&gt;AppScanHistoryRedirectWidget </title>
<path fill="none" stroke="black" stroke-dasharray="5,2" d="M514.39,-180C429.43,-180 310.26,-180 310.26,-180 310.26,-180 310.26,-205.72 310.26,-205.72"/>
<polygon fill="black" stroke="black" points="306.76,-205.72 310.26,-215.72 313.76,-205.72 306.76,-205.72"/>
</g>
<!-- AppScanIdRedirectComponent  -->
<g id="node13" class="node">
<title>AppScanIdRedirectComponent </title>
<polygon fill="#fb8072" stroke="black" points="219.73,-252 24.27,-252 24.27,-216 219.73,-216 219.73,-252"/>
<text text-anchor="middle" x="122" y="-229.8" font-family="Times,serif" font-size="14.00">AppScanIdRedirectComponent </text>
</g>
<!-- DashboardWidgetsModule&#45;&gt;AppScanIdRedirectComponent  -->
<g id="edge12" class="edge">
<title>DashboardWidgetsModule&#45;&gt;AppScanIdRedirectComponent </title>
<path fill="none" stroke="black" stroke-dasharray="5,2" d="M514.49,-173C379.4,-173 127.88,-173 127.88,-173 127.88,-173 127.88,-205.7 127.88,-205.7"/>
<polygon fill="black" stroke="black" points="124.38,-205.7 127.88,-215.7 131.38,-205.7 124.38,-205.7"/>
</g>
</g>
</svg>
