<svg xmlns="http://www.w3.org/2000/svg" xmlns:xlink="http://www.w3.org/1999/xlink" version="1.1"
    id="Layer_1" x="0px" y="0px" width="100%" viewBox="0 0 900 593"
    enable-background="new 0 0 900 593" xml:space="preserve">
<path fill="#006064" opacity="1.000000" stroke="none" d=" M400.635864,46.879402   C407.396301,45.807369 413.768829,44.843552 420.965759,43.812630   C426.532013,43.175396 431.273926,42.605270 436.015808,42.035145   C437.398590,42.032913 438.781403,42.030682 440.575745,41.971703   C447.354431,41.975899 453.721588,42.036842 460.550720,42.006371   C462.394684,41.986942 463.776672,42.058926 465.907928,42.308105   C471.447723,42.871262 476.238251,43.257217 481.439026,43.761536   C488.223145,44.843330 494.596985,45.806767 501.359131,46.878487   C508.112152,48.453117 514.476929,49.919460 521.126526,51.594990   C527.942322,53.859085 534.473328,55.913994 541.260986,58.212975   C554.667053,64.669037 567.816528,70.881035 581.162476,77.356705   C583.471497,78.799133 585.583923,79.977882 587.905334,81.432693   C592.385742,84.521904 596.657227,87.335060 601.112183,90.424194   C605.863770,94.133415 610.431885,97.566673 615.164551,101.289108   C623.889893,109.704826 632.450745,117.831367 641.123901,126.276031   C645.386780,131.449631 649.537231,136.305130 653.809937,141.485245   C656.274231,144.899811 658.616272,147.989746 661.065735,151.401871   C663.349915,154.860077 665.526550,157.996094 667.804504,161.473221   C674.855408,175.310684 681.805054,188.807037 688.816345,202.665802   C691.019226,209.001373 693.160400,214.974503 695.321777,221.320663   C696.908020,226.792496 698.474182,231.891296 700.030029,237.337189   C700.335938,238.791382 700.652222,239.898453 700.946228,241.420151   C702.128845,248.256256 703.333801,254.677734 704.571777,261.546295   C705.323730,268.363678 706.042664,274.733948 706.729004,281.564270   C706.848206,288.356567 707.000061,294.688904 707.080444,301.476807   C706.721619,308.281494 706.434204,314.630524 706.064514,321.397034   C705.222107,328.165771 704.461853,334.517059 703.498230,341.194977   C700.004028,354.664948 696.713196,367.808289 693.255554,381.232117   C690.648743,387.972839 688.208740,394.433044 685.520630,401.130676   C683.548950,405.254303 681.825439,409.140472 679.832642,413.235352   C678.341125,415.946045 677.118835,418.448029 675.634277,421.163849   C671.507690,427.897186 667.643494,434.416656 663.516113,441.102081   C662.498352,442.500732 661.743835,443.733398 660.699585,445.135071   C656.554749,450.520447 652.699585,455.736847 648.555298,461.111755   C645.846069,464.188507 643.425964,467.106750 640.704590,470.163269   C637.130615,473.832550 633.857910,477.363495 630.302124,481.044128   C626.998169,484.081024 623.977295,486.968170 620.640442,489.983826   C616.097229,493.709473 611.870056,497.306519 607.328491,500.980896   C605.000122,502.660370 602.986023,504.262482 600.639832,505.966309   C587.142517,513.896362 573.977234,521.724792 560.453247,529.655151   C547.047546,534.684265 534.000549,539.611328 520.547852,544.602295   C513.772400,546.183350 507.402649,547.700562 500.628601,549.197571   C493.803711,550.240417 487.383057,551.303528 480.551697,552.315308   C473.764160,552.868896 467.387390,553.473816 460.545044,554.016479   C453.716125,553.995789 447.352753,554.037292 440.573181,553.990662   C433.787903,553.390625 427.418823,552.878601 420.631195,552.250000   C413.798706,551.161926 407.384766,550.190430 400.581909,549.110352   C393.811066,547.514099 387.429138,546.026428 380.758484,544.352417   C367.376160,539.295471 354.282562,534.424805 340.948364,529.332153   C327.481262,521.361755 314.254761,513.613159 300.862854,505.588379   C298.583893,503.842499 296.470276,502.372803 294.167969,500.609558   C289.667297,496.829102 285.355377,493.342194 280.890625,489.563965   C277.626892,486.480072 274.515991,483.687439 271.250183,480.583374   C267.728180,476.856293 264.361115,473.440643 260.874542,469.712341   C258.221893,466.584167 255.688766,463.768677 253.034698,460.631226   C248.945145,455.198059 244.976532,450.086792 240.933105,444.670776   C239.979065,443.222626 239.099823,442.079285 238.128265,440.595459   C234.058411,433.819916 230.080856,427.384857 226.042450,420.600037   C224.619446,417.844025 223.257294,415.437775 221.852051,412.678101   C219.950150,408.513580 218.091324,404.702423 216.169739,400.522949   C213.584732,393.753021 211.062485,387.351410 208.452057,380.555878   C205.008606,367.063965 201.653336,353.965973 198.285126,340.433960   C197.465424,333.659760 196.658630,327.319641 195.899994,320.536072   C195.580399,313.735626 195.212631,307.378601 194.907074,300.555267   C195.058914,293.760773 195.148560,287.432556 195.431946,280.742981   C196.231293,273.953949 196.836884,267.526337 197.604095,260.752136   C198.854279,253.938873 199.942856,247.472198 201.173035,240.688522   C201.529556,239.244904 201.744476,238.118271 202.208618,236.719696   C203.871399,231.280869 205.284943,226.113998 206.844666,220.596985   C209.076843,214.264008 211.162811,208.281158 213.496124,202.040619   C220.594452,188.232803 227.445450,174.682648 234.556366,160.933975   C236.890320,157.514511 238.964325,154.293579 241.316711,150.886490   C243.833984,147.520264 246.072906,144.340195 248.581635,140.973236   C252.897034,135.843231 256.942627,130.900116 261.279388,125.801857   C270.046967,117.431122 278.523407,109.215538 287.319580,100.892326   C292.116608,97.239204 296.593933,93.693710 301.402954,90.053070   C305.924713,87.023918 310.114777,84.089920 314.628906,81.080154   C316.980255,79.700424 319.007477,78.396477 321.034729,77.092529   C334.184082,70.880630 347.333466,64.668747 360.739624,58.212852   C367.529236,55.914886 374.061981,53.860928 380.887817,51.607655   C387.536621,49.934765 393.892303,48.461189 400.635864,46.879402  M461.860260,506.741089   C464.651733,506.508789 467.470001,506.446503 470.229706,506.012360   C478.483704,504.713776 486.714783,503.269562 495.722626,501.946869   C497.470154,501.552795 499.217651,501.158752 501.722809,500.765961   C508.564087,498.575012 515.405396,496.384064 522.980591,494.103668   C529.027405,491.485931 535.074158,488.868195 541.814270,486.097626   C544.226135,484.773163 546.637939,483.448669 549.751831,481.983368   C553.543030,479.742157 557.334229,477.500946 561.801819,475.061401   C568.251709,470.427856 574.701599,465.794312 581.765869,460.886261   C596.126343,449.372650 609.002991,436.450928 619.915710,420.818054   C620.701416,419.581207 621.487061,418.344360 622.833008,416.766968   C626.038452,411.580292 629.243896,406.393616 632.919739,400.732605   C638.598389,387.490082 644.277100,374.247589 650.353882,360.370880   C651.949036,353.934326 653.544189,347.497772 655.608948,340.450867   C656.552002,333.999786 657.494995,327.548706 658.753296,320.361206   C659.088013,313.894745 659.422729,307.428253 659.909485,300.044067   C659.586670,293.699280 659.263916,287.354492 659.039001,280.119598   C658.169739,273.713196 657.300537,267.306793 656.347900,260.050446   C654.847351,253.707123 653.346741,247.363815 651.849182,240.267899   C646.284973,226.774109 640.720764,213.280319 635.015015,199.102859   C626.112488,186.349335 617.209961,173.595810 608.034912,160.221237   C605.702637,157.789673 603.370300,155.358093 600.750183,152.329056   C596.590576,148.503647 592.430969,144.678238 587.921875,140.273026   C585.645996,138.453171 583.370178,136.633316 580.741577,134.252991   C574.189697,129.732849 567.637756,125.212715 560.859558,120.286659   C560.625854,120.047173 560.342773,119.946518 559.571960,119.468979   C553.407227,116.222298 547.242554,112.975616 540.600159,109.241539   C534.161316,106.630333 527.722473,104.019127 520.720520,101.080910   C519.473633,100.747017 518.226746,100.413124 516.472412,99.567825   C511.302948,98.119713 506.133484,96.671600 500.209930,94.975029   C493.819366,93.766670 487.428802,92.558311 480.202179,91.107819   C473.779205,90.555115 467.356201,90.002411 460.029572,89.233360   C453.708344,89.305527 447.387146,89.377686 440.216705,89.274887   C433.798553,89.966568 427.380432,90.658257 420.177643,91.280190   C413.796997,92.594650 407.416382,93.909111 400.264374,95.220627   C395.183258,96.837540 390.102112,98.454453 384.368011,100.068382   C383.150177,100.515121 381.932343,100.961861 379.975433,101.602859   C373.624237,104.311600 367.273041,107.020340 360.203735,109.884209   C354.132172,113.251114 348.060638,116.618019 341.527863,120.031570   C341.215424,120.151894 341.010773,120.372299 340.237335,120.918327   C333.793091,125.549553 327.348877,130.180771 320.265167,135.025284   C318.085968,136.968048 315.906769,138.910797 313.127136,141.122452   C309.072052,145.057175 305.016968,148.991882 300.366791,153.230164   C298.142059,155.767654 295.917358,158.305145 293.137299,161.192902   C282.924957,173.069565 273.750366,185.654007 266.296753,200.236267   C260.915436,213.831024 255.534134,227.425781 249.825333,241.710114   C248.405853,248.106705 246.986359,254.503281 245.221924,261.586670   C244.500900,268.061005 243.779861,274.535370 242.859955,281.837006   C242.652313,288.212341 242.444672,294.587708 242.101959,301.882874   C242.584030,308.287994 243.066101,314.693085 243.581711,321.991364   C244.671143,328.349915 245.760574,334.708496 246.854767,341.896515   C248.584000,348.266144 250.313232,354.635742 252.029465,361.766052   C257.869781,374.913116 263.710083,388.060181 269.815033,401.872833   C273.120544,406.952332 276.426025,412.031860 279.944366,417.713470   C280.820465,418.875763 281.696564,420.038086 282.835449,421.848633   C293.673828,436.725830 306.116089,450.052277 321.217834,461.720428   C327.770264,466.233704 334.322723,470.746979 341.281281,475.790955   C345.172058,477.902710 349.062805,480.014496 353.342987,482.681580   C355.855103,483.871307 358.367218,485.061035 361.354950,486.745575   C367.489258,489.228882 373.623596,491.712219 380.308289,494.691071   C387.217224,496.715637 394.126129,498.740204 401.769318,500.995514   C403.526886,501.290955 405.284485,501.586395 407.638763,502.350220   C418.743347,503.763306 429.847900,505.176392 441.876007,506.803131   C448.266571,506.731873 454.657135,506.660614 461.860260,506.741089  z"/>
<path fill="#006064" opacity="1.000000" stroke="none" d=" M562.248413,240.601959   C561.584839,244.761276 560.834290,248.493835 559.768982,252.807220   C557.873047,255.875198 556.291809,258.362366 554.428223,261.014771   C549.783142,265.846954 545.420288,270.513885 540.767334,275.329224   C532.535400,283.945953 524.593567,292.414246 516.365723,301.025452   C509.917175,307.733215 503.754547,314.298065 497.300201,320.991150   C485.372162,333.276123 473.700592,345.399323 462.112366,357.601685   C454.894714,365.201874 447.803009,372.921722 440.352661,380.740143   C434.669586,385.861847 428.277679,388.525330 420.593536,389.169922   C413.042419,389.361633 406.828339,386.786835 400.868164,382.738892   C399.962128,381.922272 399.190460,381.361847 398.252808,380.503296   C392.380707,375.195801 386.674591,370.186432 380.762787,364.922913   C379.064117,363.432678 377.571106,362.196564 375.914154,360.668152   C370.884308,356.148987 366.018402,351.922058 360.991486,347.413177   C358.553131,345.087219 356.275818,343.043213 353.851074,340.701813   C349.526154,336.488708 345.348602,332.572998 341.171021,328.657288   C339.196075,326.284973 337.221130,323.912628 335.025238,321.285461   C331.474121,315.070129 330.111450,308.690002 330.672699,301.428833   C331.893982,293.456177 335.632385,287.339386 341.359161,281.979736   C341.515625,281.701141 341.483734,281.514496 341.767822,281.484314   C347.885956,277.993439 354.047363,275.615601 361.372131,275.827118   C368.276550,276.438507 374.085022,278.639526 378.921600,283.091278   C387.243774,290.751312 395.497314,298.486145 403.845215,306.117859   C408.449615,310.327209 413.187439,314.390564 418.031128,318.666260   C419.721680,316.771576 420.923920,315.424194 422.415924,313.919006   C426.614136,309.543152 430.522522,305.325043 434.698517,300.939056   C436.990387,298.556824 439.014679,296.342468 441.343628,293.982239   C445.647003,289.568420 449.645721,285.300446 453.920624,280.821350   C456.480560,278.126038 458.764313,275.641785 461.350586,273.005310   C465.337616,268.912201 469.022064,264.971313 472.977539,260.815857   C475.848846,257.788269 478.449127,254.975189 481.352966,252.011353   C485.034943,248.224365 488.413361,244.588165 492.087280,240.790283   C495.273621,237.480453 498.164490,234.332291 501.357361,231.029083   C504.721558,227.570374 507.783752,224.266739 511.152161,220.817398   C515.038513,218.166275 518.618713,215.660858 522.607666,213.105652   C528.985474,212.795120 534.954468,212.534393 540.923462,212.273682   C553.728333,217.216034 561.365845,226.091660 562.248413,240.601959  z"/>
</svg>