<?xml version="1.0" encoding="UTF-8" standalone="no"?>
<!DOCTYPE svg PUBLIC "-//W3C//DTD SVG 1.1//EN"
 "http://www.w3.org/Graphics/SVG/1.1/DTD/svg11.dtd">
<!-- Generated by graphviz version 2.47.0 (20210316.0004)
 -->
<!-- Title: dependencies Pages: 1 -->
<svg width="504pt" height="211pt"
 viewBox="0.00 0.00 504.00 211.00" xmlns="http://www.w3.org/2000/svg" xmlns:xlink="http://www.w3.org/1999/xlink">
<g id="graph0" class="graph" transform="scale(1 1) rotate(0) translate(4 207)">
<title>dependencies</title>
<polygon fill="white" stroke="transparent" points="-4,4 -4,-207 500,-207 500,4 -4,4"/>
<text text-anchor="start" x="227.01" y="-42.4" font-family="Times-12" font-weight="bold" font-size="14.00">Legend</text>
<polygon fill="#ffffb3" stroke="transparent" points="14,-10 14,-30 34,-30 34,-10 14,-10"/>
<text text-anchor="start" x="37.63" y="-15.4" font-family="Times-12" font-size="14.00"> &#160;Declarations</text>
<polygon fill="#8dd3c7" stroke="transparent" points="127,-10 127,-30 147,-30 147,-10 127,-10"/>
<text text-anchor="start" x="150.73" y="-15.4" font-family="Times-12" font-size="14.00"> &#160;Module</text>
<polygon fill="#80b1d3" stroke="transparent" points="213,-10 213,-30 233,-30 233,-10 213,-10"/>
<text text-anchor="start" x="236.78" y="-15.4" font-family="Times-12" font-size="14.00"> &#160;Bootstrap</text>
<polygon fill="#fdb462" stroke="transparent" points="310,-10 310,-30 330,-30 330,-10 310,-10"/>
<text text-anchor="start" x="333.67" y="-15.4" font-family="Times-12" font-size="14.00"> &#160;Providers</text>
<polygon fill="#fb8072" stroke="transparent" points="406,-10 406,-30 426,-30 426,-10 406,-10"/>
<text text-anchor="start" x="429.73" y="-15.4" font-family="Times-12" font-size="14.00"> &#160;Exports</text>
<g id="clust1" class="cluster">
<title>cluster_DashboardsModule</title>
<polygon fill="none" stroke="black" stroke-dasharray="1,5" points="50,-70 50,-195 446,-195 446,-70 50,-70"/>
</g>
<g id="clust4" class="cluster">
<title>cluster_DashboardsModule_imports</title>
<polygon fill="none" stroke="black" points="256,-78 256,-130 438,-130 438,-78 256,-78"/>
</g>
<g id="clust2" class="cluster">
<title>cluster_DashboardsModule_declarations</title>
<polygon fill="none" stroke="black" points="58,-78 58,-130 248,-130 248,-78 58,-78"/>
</g>
<!-- AppDashboard1Component -->
<g id="node1" class="node">
<title>AppDashboard1Component</title>
<polygon fill="#ffffb3" stroke="black" points="239.58,-122 66.42,-122 66.42,-86 239.58,-86 239.58,-122"/>
<text text-anchor="middle" x="153" y="-99.8" font-family="Times,serif" font-size="14.00">AppDashboard1Component</text>
</g>
<!-- DashboardsModule -->
<g id="node2" class="node">
<title>DashboardsModule</title>
<polygon fill="#8dd3c7" stroke="black" points="312.64,-187 309.64,-191 288.64,-191 285.64,-187 187.36,-187 187.36,-151 312.64,-151 312.64,-187"/>
<text text-anchor="middle" x="250" y="-164.8" font-family="Times,serif" font-size="14.00">DashboardsModule</text>
</g>
<!-- AppDashboard1Component&#45;&gt;DashboardsModule -->
<g id="edge1" class="edge">
<title>AppDashboard1Component&#45;&gt;DashboardsModule</title>
<path fill="none" stroke="black" d="M213.36,-122.11C213.36,-122.11 213.36,-140.99 213.36,-140.99"/>
<polygon fill="black" stroke="black" points="209.86,-140.99 213.36,-150.99 216.86,-140.99 209.86,-140.99"/>
</g>
<!-- DashboardWidgetsModule -->
<g id="node3" class="node">
<title>DashboardWidgetsModule</title>
<polygon fill="#8dd3c7" stroke="black" points="430.35,-122 427.35,-126 406.35,-126 403.35,-122 263.65,-122 263.65,-86 430.35,-86 430.35,-122"/>
<text text-anchor="middle" x="347" y="-99.8" font-family="Times,serif" font-size="14.00">DashboardWidgetsModule</text>
</g>
<!-- DashboardWidgetsModule&#45;&gt;DashboardsModule -->
<g id="edge2" class="edge">
<title>DashboardWidgetsModule&#45;&gt;DashboardsModule</title>
<path fill="none" stroke="black" d="M288.2,-122.11C288.2,-122.11 288.2,-140.99 288.2,-140.99"/>
<polygon fill="black" stroke="black" points="284.7,-140.99 288.2,-150.99 291.7,-140.99 284.7,-140.99"/>
</g>
</g>
</svg>
